<?xml version="1.0" standalone="no"?>
<!DOCTYPE svg PUBLIC "-//W3C//DTD SVG 20010904//EN"
 "http://www.w3.org/TR/2001/REC-SVG-20010904/DTD/svg10.dtd">
<svg version="1.0" xmlns="http://www.w3.org/2000/svg"
 width="540.000000pt" height="540.000000pt" viewBox="0 0 540.000000 540.000000"
 preserveAspectRatio="xMidYMid meet">

<g transform="translate(0.000000,540.000000) scale(0.100000,-0.100000)"
fill="#000000" stroke="none">
<path d="M2491 5065 c-46 -13 -89 -21 -96 -19 -7 3 -27 -1 -43 -10 -25 -13
-51 -14 -179 -5 -181 12 -188 9 -268 -83 -32 -37 -68 -71 -79 -74 -38 -12
-114 -100 -126 -146 -21 -79 -31 -91 -90 -109 l-55 -16 -3 -49 c-2 -30 -10
-57 -22 -69 -23 -25 -29 -56 -12 -62 7 -3 19 10 27 29 14 33 20 22 9 -19 -8
-31 -54 -32 -61 -2 -5 17 -9 13 -32 -25 -15 -27 -46 -59 -74 -77 -55 -36 -65
-53 -48 -80 14 -23 -1 -25 -20 -3 -10 12 -10 22 -2 45 9 23 9 29 -2 29 -8 0
-19 -18 -25 -39 -14 -54 -70 -71 -70 -21 0 36 12 50 42 50 17 0 27 4 23 10
-10 16 -53 12 -75 -7 -11 -10 -20 -30 -20 -45 0 -27 -12 -43 -23 -32 -3 4 -1
14 5 24 6 9 8 25 4 35 -11 30 -39 -3 -32 -38 5 -25 4 -28 -9 -17 -8 7 -15 18
-15 25 0 7 -10 15 -21 18 -36 9 -99 -35 -119 -83 -6 -15 -20 -30 -30 -33 -11
-3 -22 -17 -25 -31 -3 -14 -7 -37 -10 -51 -4 -18 -12 -25 -30 -25 -13 0 -27 4
-30 10 -10 16 -43 -11 -59 -50 -22 -52 -28 -128 -15 -187 l12 -52 -69 -74
c-75 -80 -152 -202 -178 -282 -12 -36 -34 -69 -79 -115 -35 -36 -76 -88 -92
-116 l-28 -51 28 -56 c23 -44 31 -54 38 -41 5 8 6 21 3 29 -2 7 1 18 8 25 10
8 15 7 20 -5 3 -8 2 -15 -3 -15 -17 0 -19 -50 -2 -60 14 -8 14 -9 -1 -10 -22
0 -22 -9 -3 -34 19 -26 19 -32 -5 -53 -13 -13 -17 -26 -13 -42 l6 -23 24 29
25 28 -21 -35 c-23 -40 -41 -50 -41 -23 0 10 -4 25 -10 33 -7 12 -12 12 -29
-4 -12 -11 -21 -24 -21 -30 0 -6 -19 -38 -42 -71 -118 -168 -108 -144 -108
-270 0 -84 4 -115 14 -124 15 -13 28 -118 26 -222 l-1 -66 78 -83 c43 -46 82
-97 88 -114 5 -17 17 -31 25 -31 8 -1 14 -7 12 -14 -3 -16 36 -61 54 -61 16 0
27 32 18 54 -3 9 -1 16 5 16 7 0 10 -15 9 -40 -2 -22 -6 -40 -10 -40 -5 0 -8
-3 -8 -7 1 -11 73 -43 96 -43 33 0 44 -21 44 -85 0 -33 4 -65 8 -72 4 -6 30
-27 58 -46 35 -24 55 -32 65 -26 8 5 21 8 29 8 8 0 4 -5 -10 -11 -18 -7 -21
-12 -10 -15 8 -3 28 -17 44 -32 20 -18 30 -22 33 -13 3 7 13 -3 25 -25 42 -79
137 -153 197 -153 20 0 53 -9 74 -20 46 -25 85 -26 104 -2 14 16 -5 -21 -43
-84 -11 -16 -46 -54 -79 -84 -33 -30 -64 -59 -70 -65 -16 -18 -104 -87 -190
-149 -122 -87 -165 -132 -165 -171 0 -47 8 -64 40 -80 20 -10 30 -11 39 -2 8
8 11 8 11 -1 0 -9 6 -9 25 0 20 9 75 98 75 122 0 2 -12 6 -28 8 -35 4 -39 41
-4 46 29 4 29 19 0 25 -16 4 -13 5 7 4 25 -2 31 -7 36 -32 4 -16 7 -25 8 -19
3 26 119 184 184 251 56 57 91 83 173 125 95 48 105 56 123 98 l21 45 -3 -39
c-2 -46 19 -62 26 -19 4 28 4 28 6 -3 1 -27 15 -44 37 -44 3 0 2 30 -1 67 -4
54 -3 61 5 33 5 -19 12 -50 15 -69 7 -45 9 -46 47 -49 18 -2 37 -7 42 -12 14
-14 -10 -59 -36 -70 -18 -7 -13 -9 27 -8 60 1 93 14 76 31 -26 26 -4 70 24 47
20 -16 149 -3 194 20 42 21 81 28 98 17 10 -6 8 -17 -7 -46 -10 -21 -24 -60
-30 -87 -6 -27 -16 -68 -22 -91 -11 -43 -10 -43 34 -126 13 -24 17 -25 28 -12
7 8 17 15 23 15 5 0 2 -9 -8 -20 -16 -18 -17 -21 -1 -44 20 -32 21 -42 1 -26
-13 11 -14 10 -9 -6 4 -10 18 -33 31 -51 20 -28 31 -33 83 -39 33 -4 63 -12
68 -18 15 -20 31 -140 25 -189 -5 -41 -13 -55 -54 -94 -57 -55 -64 -89 -24
-128 42 -43 97 -27 111 33 9 38 44 93 75 119 21 18 27 32 27 64 1 26 7 48 17
58 19 17 19 18 0 -46 -8 -30 9 -37 46 -18 27 14 30 21 25 46 -6 30 10 41 20
14 4 -10 14 -13 30 -9 13 4 31 1 38 -5 25 -21 84 -2 113 35 28 38 59 46 50 14
-5 -21 7 -28 18 -10 10 16 33 12 39 -8 3 -9 16 -22 28 -27 20 -9 23 -19 26
-74 2 -44 -2 -69 -11 -80 -17 -19 -28 -71 -15 -71 4 0 19 24 32 54 26 58 51
75 86 56 17 -9 28 -2 18 13 -6 9 26 47 40 46 10 0 12 -3 5 -6 -18 -7 -16 -20
2 -27 18 -6 54 11 72 35 8 10 34 18 74 22 34 3 66 10 71 15 15 15 23 92 9 92
-6 0 -11 9 -11 21 0 11 5 19 12 17 14 -5 58 38 58 57 0 8 5 17 10 20 6 3 10 0
10 -8 0 -10 14 -14 53 -13 50 1 52 2 55 31 2 16 11 41 21 55 15 22 58 121 75
173 9 27 34 32 57 11 18 -16 37 -19 143 -18 103 0 127 3 161 21 64 33 90 72
73 106 -6 12 -6 23 1 30 5 7 8 22 6 32 -2 11 -4 27 -4 36 -1 24 -44 65 -64 61
-17 -4 -17 -12 0 -60 4 -8 0 -10 -11 -6 -10 4 -15 13 -12 20 3 7 1 16 -4 19
-14 9 -12 99 2 113 17 17 63 15 98 -3 23 -12 30 -13 30 -3 1 8 5 7 14 -4 7
-10 18 -18 24 -18 6 0 16 -8 21 -17 10 -16 10 -16 11 2 0 12 -5 26 -10 31 -8
8 -7 14 2 21 9 8 17 7 26 -3 7 -8 8 -14 2 -14 -25 0 -7 -50 33 -92 73 -77 87
-95 87 -113 0 -10 24 -51 53 -91 79 -111 133 -123 150 -33 7 35 5 50 -9 76 -9
18 -21 33 -27 33 -5 0 -4 -7 3 -15 11 -13 8 -15 -14 -15 -23 0 -25 3 -19 30 4
20 2 30 -7 30 -6 0 -23 9 -37 20 -14 11 -28 18 -32 16 -3 -2 -19 13 -36 34
-17 21 -42 41 -57 44 -24 5 -28 10 -28 40 0 18 -6 39 -13 45 -8 6 -22 29 -32
51 -12 26 -25 40 -37 40 -12 0 -18 7 -18 21 0 11 -5 30 -11 42 -10 18 -7 25
24 51 20 17 41 44 47 59 5 16 19 31 30 34 30 8 26 30 -39 212 -22 63 -43 142
-46 175 l-5 61 13 -45 c8 -25 35 -114 61 -197 26 -84 48 -163 50 -175 1 -13 8
-36 14 -51 7 -16 12 -39 12 -53 0 -13 5 -24 10 -24 10 0 8 24 -6 120 -3 19
-12 46 -19 60 -8 16 -10 32 -5 40 7 11 15 7 37 -19 88 -105 110 -122 149 -119
47 4 61 24 48 74 -6 27 -21 48 -53 72 -40 30 -49 33 -88 27 -24 -3 -53 -3 -64
0 -18 6 -20 12 -15 45 6 40 33 99 51 112 6 4 30 8 55 8 25 0 61 5 80 11 19 6
52 10 74 9 21 0 54 6 72 15 33 16 35 15 102 -21 37 -21 78 -46 91 -56 l25 -19
14 33 c24 57 3 179 -34 201 -8 5 -14 25 -14 50 0 24 -5 48 -12 55 -9 9 -7 12
10 12 20 0 22 -5 22 -48 l0 -49 36 1 c33 1 35 3 31 29 -3 21 0 27 15 27 13 0
18 -8 18 -29 0 -18 7 -32 18 -36 16 -7 16 -8 -2 -14 -16 -6 -7 -17 55 -67 41
-33 97 -75 124 -93 28 -19 67 -53 88 -77 37 -42 95 -71 122 -60 43 16 -8 149
-77 197 -49 35 -152 83 -172 80 -16 -2 -17 1 -11 21 4 12 8 37 9 53 1 18 7 29
14 27 7 -1 23 10 36 25 22 26 23 29 7 50 -10 15 -25 22 -41 21 -34 -3 -49 8
-43 31 2 10 0 36 -6 58 -10 37 -17 43 -69 64 -31 13 -63 24 -69 25 -7 1 -20 9
-29 18 -20 20 -34 20 -34 1 0 -8 -4 -15 -8 -15 -5 0 -7 14 -4 30 3 23 0 30
-12 30 -9 0 -19 -7 -21 -15 -3 -8 -7 -22 -10 -31 -9 -26 -14 -12 -8 20 3 16
14 31 24 33 12 3 19 14 19 28 0 13 11 32 26 44 30 24 26 51 -12 76 -24 16 -26
15 -50 -10 -13 -14 -24 -29 -24 -33 0 -4 -5 -14 -10 -22 -8 -13 -11 -12 -24 5
-11 15 -17 17 -28 7 -12 -10 -17 -7 -28 16 -7 16 -14 22 -17 14 -3 -7 2 -24
11 -37 13 -20 14 -30 5 -46 -6 -11 -8 -33 -5 -47 5 -18 4 -22 -3 -13 -12 19
-31 5 -31 -25 0 -13 -4 -24 -8 -24 -5 0 -7 13 -4 29 3 20 -1 30 -13 35 -23 8
-32 1 -40 -34 -6 -29 -40 -50 -55 -33 -5 4 -5 24 0 43 l8 35 1 -38 c1 -47 21
-46 36 1 5 18 13 32 17 32 5 0 5 18 2 40 -4 27 -3 40 5 40 6 0 11 -11 11 -24
0 -27 20 -39 41 -25 11 8 8 14 -16 36 -20 18 -29 35 -29 54 1 24 -4 29 -30 35
-17 4 -42 15 -56 26 -24 19 -24 19 -32 -2 -6 -16 -15 -21 -35 -18 -25 3 -28 7
-31 46 -2 29 0 42 7 37 6 -3 11 -22 11 -41 0 -38 17 -46 24 -11 16 81 16 89
-7 113 -27 29 -37 30 -37 4 0 -15 -7 -20 -24 -20 -14 0 -28 4 -31 10 -4 6 5
10 19 10 40 0 30 30 -19 57 -28 16 -29 93 -1 93 11 0 30 -10 43 -21 20 -20 23
-20 29 -5 4 10 -1 25 -11 36 -12 13 -15 27 -11 45 6 22 3 25 -18 25 -26 0 -53
24 -37 34 5 3 16 3 25 0 13 -5 16 1 16 25 0 21 -5 31 -15 31 -8 0 -15 8 -15
19 0 19 -5 21 -102 56 -41 15 -56 16 -113 5 -67 -13 -96 -30 -51 -30 34 0 41
-16 21 -46 -20 -31 -12 -43 12 -22 10 8 31 18 46 22 38 9 32 -14 -9 -33 -16
-8 -32 -18 -35 -23 -7 -10 -91 32 -96 48 -2 7 8 9 27 6 17 -2 30 0 30 6 0 15
-41 42 -63 42 -9 0 -20 6 -23 14 -7 17 -32 28 -46 20 -5 -3 6 -19 24 -36 l33
-29 -25 -19 c-28 -22 -40 -25 -40 -10 0 6 5 10 10 10 6 0 10 5 10 10 0 15 -36
12 -50 -5 -7 -8 -19 -15 -26 -15 -23 0 -16 -35 11 -60 29 -27 31 -36 11 -43
-10 -4 -13 -1 -10 7 3 8 1 17 -5 21 -6 3 -11 0 -11 -7 -1 -40 -21 32 -39 140
-11 66 -24 129 -29 139 -6 10 -12 46 -15 81 -4 53 -3 61 9 51 8 -6 14 -18 14
-25 0 -18 14 -18 30 1 7 9 15 13 18 11 6 -6 52 49 52 62 0 5 11 17 24 25 21
14 26 14 45 0 12 -8 20 -21 17 -28 -6 -17 15 -25 63 -25 43 0 64 19 75 65 9
37 23 54 53 66 12 4 21 16 21 26 -3 42 25 126 43 130 11 3 19 12 19 19 0 8 5
14 10 14 14 0 24 -26 15 -40 -4 -6 -8 -33 -10 -59 -2 -42 0 -48 16 -44 10 3
15 11 12 19 -3 8 -2 22 1 31 6 15 8 15 16 3 8 -12 13 -13 30 -2 26 16 31 15
24 -3 -4 -8 -19 -15 -35 -15 -42 0 -27 -26 16 -27 30 -1 36 3 41 25 3 15 8 33
10 41 3 10 1 11 -8 5 -11 -9 -41 -10 -85 -5 -8 0 -13 16 -13 40 0 31 4 41 20
46 11 3 20 11 20 16 0 12 37 12 45 -1 3 -5 10 -10 16 -10 5 0 4 8 -2 18 -17
28 13 92 43 92 13 0 29 -5 36 -12 8 -8 12 -9 12 -1 0 6 -5 13 -12 15 -7 3 -9
12 -4 23 5 15 9 16 15 6 6 -9 10 -6 14 10 4 16 1 26 -9 32 -11 6 -14 17 -10
33 5 20 2 26 -19 34 -22 8 -24 12 -13 35 18 41 -4 97 -55 136 -23 18 -50 41
-59 52 -18 19 -18 19 -18 -3 0 -13 8 -29 18 -37 16 -13 16 -14 -3 -11 -13 2
-21 12 -23 28 -2 14 -8 30 -14 37 -5 7 -7 16 -4 21 8 13 -61 85 -74 77 -5 -3
-10 2 -10 13 0 21 -24 35 -92 52 -58 15 -75 9 -81 -27 l-4 -28 -2 29 c-1 26
-3 28 -32 22 -17 -3 -38 -6 -45 -6 -26 0 -14 -29 14 -33 l27 -4 -26 -2 c-41
-2 -55 22 -40 66 12 33 11 37 -16 65 -15 16 -47 41 -71 55 -38 23 -50 25 -106
19 -57 -6 -68 -3 -124 25 -34 17 -82 51 -107 75 -40 40 -47 44 -66 33 -18 -9
-25 -9 -34 5 -7 9 -16 16 -20 16 -4 0 -2 -6 4 -13 6 -8 8 -17 4 -21 -4 -4 -16
3 -26 16 -19 23 -19 23 -1 -7 10 -16 29 -50 41 -75 12 -25 23 -39 23 -31 0 23
8 8 34 -62 23 -63 45 -179 32 -166 -3 3 -13 23 -21 45 -10 26 -14 30 -10 11
16 -81 35 -227 34 -262 -1 -22 -7 8 -14 67 -7 58 -18 129 -24 157 -6 28 -8 56
-5 64 2 7 -4 33 -16 58 -11 24 -17 33 -14 19 4 -14 8 -32 11 -40 2 -8 -6 3
-17 25 -11 22 -20 46 -20 52 0 18 -52 125 -57 119 -3 -2 1 -14 7 -26 25 -46
61 -158 75 -230 17 -88 17 -82 8 -77 -5 3 -6 -34 -4 -81 5 -128 -10 -92 -19
45 -7 101 -38 254 -55 271 -8 9 -6 -10 10 -68 8 -30 14 -86 14 -125 -1 -64 -2
-67 -10 -30 -23 110 -34 146 -66 219 -19 44 -43 92 -54 107 -10 15 -19 34 -19
42 0 8 -17 30 -37 48 -21 18 -37 36 -36 40 4 14 -68 31 -103 25 -50 -10 -41 1
16 18 65 19 108 7 168 -47 25 -23 41 -35 36 -26 -14 25 -95 90 -134 107 -31
14 -32 16 -13 20 12 2 32 -2 45 -9 l23 -12 -20 23 c-11 12 -40 32 -65 43 -30
13 -39 22 -28 24 9 2 32 -3 50 -12 25 -13 29 -14 18 -3 -8 9 -34 23 -58 32
-34 13 -51 14 -85 5 -59 -15 -55 -15 -129 14 -82 33 -135 33 -247 2z m119 -3
c0 -4 -30 -21 -67 -36 -117 -50 -207 -96 -228 -116 -19 -19 -19 -20 4 -15 12
2 38 18 57 35 19 16 42 30 50 30 8 0 -14 -25 -50 -56 -36 -30 -66 -58 -66 -61
0 -3 9 2 20 12 11 10 20 15 20 11 0 -4 18 6 39 23 21 17 74 49 117 70 84 43
111 50 41 11 -99 -55 -204 -157 -246 -237 -21 -40 -4 -24 23 21 28 47 55 74
43 42 -4 -10 26 13 66 50 63 59 177 136 177 120 0 -3 -15 -13 -32 -22 -41 -20
-149 -124 -142 -136 3 -5 1 -7 -4 -6 -14 4 -110 -126 -129 -173 -8 -22 -20
-36 -26 -32 -6 3 -7 1 -3 -5 4 -6 -5 -35 -20 -64 -15 -29 -47 -109 -71 -178
-40 -115 -44 -122 -27 -50 4 20 3 22 -5 10 -13 -18 -13 -3 -1 25 l9 20 1 -20
c0 -11 23 45 50 125 27 80 54 153 59 162 14 22 14 61 2 53 -20 -12 -76 -123
-103 -204 -16 -47 -26 -70 -23 -51 17 106 18 123 7 116 -9 -5 -9 0 -2 18 10
26 -5 33 -23 11 -19 -22 7 55 46 142 24 53 50 95 60 98 9 4 15 11 12 16 -3 5
0 6 8 3 8 -3 18 -1 22 5 3 6 1 11 -6 11 -7 0 -5 10 6 28 11 16 -5 5 -40 -28
-31 -30 -63 -68 -72 -83 -8 -16 -17 -27 -20 -24 -2 3 0 15 7 26 6 12 8 21 5
21 -7 0 -45 -88 -43 -98 3 -14 -65 -161 -72 -157 -14 9 -52 -151 -77 -317 -3
-21 -9 -35 -14 -32 -5 3 -9 -7 -10 -23 0 -15 -5 -37 -10 -48 -6 -14 -7 -7 -4
25 3 25 10 85 15 134 5 49 12 92 16 95 3 3 3 -16 0 -44 -3 -27 -4 -45 -1 -40
9 21 45 199 40 203 -3 3 -5 -3 -6 -14 0 -18 -1 -18 -8 0 -5 14 -11 3 -24 -43
-19 -67 -66 -175 -67 -151 -1 67 108 368 150 415 10 11 27 38 38 60 20 37 82
118 66 85 -9 -20 5 -4 38 40 29 40 135 126 144 117 3 -3 38 8 77 25 40 17 87
33 106 35 19 2 41 8 50 13 20 12 51 13 51 2z m23 -29 c-7 -2 -19 -2 -25 0 -7
3 -2 5 12 5 14 0 19 -2 13 -5z m184 -165 c-3 -8 -6 -5 -6 6 -1 11 2 17 5 13 3
-3 4 -12 1 -19z m-172 3 c-6 -5 -26 -14 -46 -20 -57 -18 -127 -69 -170 -124
-46 -57 -51 -50 -10 14 38 59 86 103 102 94 7 -5 10 -4 6 1 -3 6 3 16 15 23
11 7 17 8 13 2 -9 -15 6 -14 46 4 39 16 58 19 44 6z m135 -75 c14 -3 47 -10
74 -16 51 -10 96 -34 96 -50 0 -5 9 -12 21 -15 11 -4 18 -12 16 -18 -2 -7 2
-18 9 -25 8 -7 14 -9 14 -5 1 4 9 -2 19 -14 10 -12 21 -20 24 -17 3 4 11 -13
17 -36 6 -23 22 -66 35 -94 12 -28 28 -71 34 -96 14 -53 30 -192 22 -187 -58
33 -93 42 -161 41 -41 0 -92 -6 -112 -13 -34 -11 -105 -77 -95 -88 3 -2 27 7
54 21 85 42 170 60 229 47 66 -15 89 -38 103 -103 7 -29 18 -82 26 -118 18
-80 20 -134 6 -180 -14 -43 -14 -53 -1 -45 16 10 12 -8 -15 -69 -29 -64 -35
-104 -11 -70 8 11 19 36 25 55 17 55 3 -92 -17 -171 -40 -165 -171 -369 -241
-375 -9 -1 -45 -20 -80 -43 -76 -49 -106 -56 -220 -50 -98 6 -149 25 -239 88
-32 22 -63 40 -69 40 -14 0 -84 79 -99 111 -72 153 -94 220 -94 282 0 35 2 39
21 34 21 -6 21 -4 13 41 -5 26 -8 114 -8 195 2 162 6 176 59 181 15 2 40 -3
55 -11 36 -18 100 -26 100 -13 0 6 -17 10 -37 10 -64 1 -98 46 -53 70 17 9 20
8 20 -13 0 -34 19 -47 67 -47 44 0 45 1 55 64 3 16 8 13 40 -17 31 -29 35 -36
20 -40 -10 -3 -6 -5 11 -6 38 -1 34 12 -18 56 -25 20 -45 41 -45 45 0 18 28 6
55 -22 16 -16 34 -30 41 -30 7 0 18 -8 23 -17 10 -17 10 -16 11 2 1 18 2 17
16 -5 l15 -25 -6 25 c-4 14 -15 37 -25 51 -10 15 -26 43 -34 63 -24 58 -84 81
-213 81 -65 0 -101 4 -99 10 3 6 19 53 36 105 54 164 102 254 172 324 68 68
119 92 218 103 30 3 57 7 59 9 3 2 12 2 20 0 9 -3 27 -8 41 -10z m-426 -133
c-42 -77 -64 -111 -64 -100 0 11 38 84 67 130 39 62 37 42 -3 -30z m925 35
c15 -43 8 -45 -12 -3 -9 19 -13 35 -8 35 5 0 14 -14 20 -32z m-1042 -124 c-6
-20 -13 -32 -14 -27 -4 11 14 63 21 63 2 0 -1 -16 -7 -36z m-26 -71 c-8 -15
-10 -15 -11 -2 0 17 10 32 18 25 2 -3 -1 -13 -7 -23z m1229 -3 c0 -11 -4 -20
-10 -20 -5 0 -10 9 -10 20 0 11 5 20 10 20 6 0 10 -9 10 -20z m40 1 c0 -11 -4
-23 -10 -26 -6 -4 -10 5 -10 19 0 14 5 26 10 26 6 0 10 -9 10 -19z m-1576 -24
c-8 -4 -15 -22 -15 -40 -2 -30 -2 -29 -8 8 -7 44 5 69 25 51 9 -8 9 -13 -2
-19z m1832 18 c9 -8 11 -15 5 -15 -15 0 -14 -57 2 -64 6 -3 3 -5 -8 -3 -15 2
-21 11 -23 35 -2 17 -8 32 -13 32 -5 0 -4 7 3 15 16 18 16 18 34 0z m-2081
-17 c3 -7 0 -26 -5 -43 -9 -29 -10 -28 -4 8 6 46 -9 49 -24 5 l-11 -33 2 30
c1 19 -3 29 -11 28 -6 -2 -12 2 -12 7 0 15 60 12 65 -2z m85 8 c0 -2 3 -11 6
-20 4 -10 1 -16 -10 -16 -10 0 -13 6 -9 16 4 12 1 15 -12 13 -11 -3 -20 -15
-22 -31 -3 -21 1 -27 19 -31 21 -4 20 -4 -3 -6 -34 -1 -45 24 -24 55 13 20 55
35 55 20z m88 -33 c-1 -37 -1 -37 -5 -5 -2 17 -9 32 -14 32 -6 0 -16 -15 -24
-32 -11 -27 -14 -29 -15 -11 0 36 11 53 36 53 21 0 24 -4 22 -37z m1740 25
c20 -20 14 -28 -19 -28 -36 0 -35 -21 2 -31 24 -7 24 -7 -3 -8 -33 -1 -49 24
-37 57 9 24 38 29 57 10z m100 -30 c2 -22 -1 -38 -7 -38 -6 0 -11 13 -11 29 0
51 -26 49 -34 -3 -5 -35 -16 -26 -16 13 0 42 0 42 33 39 29 -3 32 -6 35 -40z
m-2081 -20 c-3 -7 -5 -2 -5 12 0 14 2 19 5 13 2 -7 2 -19 0 -25z m434 -14 c-5
-21 -9 -30 -10 -19 -1 24 10 67 15 62 3 -2 0 -22 -5 -43z m50 -132 c-12 -44
-21 -102 -22 -129 0 -26 -5 -57 -10 -68 -6 -13 -7 6 -4 60 6 89 48 280 53 242
2 -14 -6 -61 -17 -105z m1242 4 c-5 -9 -9 8 -9 42 l-2 57 10 -42 c5 -24 6 -49
1 -57z m96 -43 c0 -35 2 -66 4 -70 3 -5 1 -17 -3 -28 -4 -12 -9 9 -14 60 -4
44 -9 98 -12 120 l-4 40 14 -30 c8 -16 14 -58 15 -92z m-141 -38 l0 -50 -9 40
c-4 22 -8 65 -7 95 l1 55 8 -45 c4 -25 7 -67 7 -95z m-1457 102 c-6 -6 -12
-25 -12 -41 l-2 -31 -6 35 c-7 36 4 64 21 54 6 -4 6 -10 -1 -17z m1754 3 c3
-5 -3 -10 -14 -10 -27 0 -27 -16 -1 -23 11 -3 20 -12 20 -20 0 -19 -30 -31
-44 -17 -8 8 -6 9 5 5 10 -4 20 -2 24 4 3 6 -5 15 -19 21 -29 11 -32 20 -14
38 15 15 35 16 43 2z m93 -2 c17 -17 15 -28 -4 -28 -8 0 -12 5 -9 10 3 6 -1
10 -9 10 -10 0 -13 -6 -10 -15 4 -8 1 -15 -6 -15 -10 0 -10 -3 0 -15 8 -9 22
-13 34 -10 20 5 20 4 -1 -6 -17 -9 -26 -9 -38 1 -27 23 -13 80 20 80 6 0 16
-5 23 -12z m102 3 c0 -5 -9 -11 -19 -14 -12 -3 -21 -16 -24 -33 -3 -25 -4 -24
-6 8 -1 27 3 38 17 41 28 8 32 7 32 -2z m73 -44 c5 -32 3 -38 -10 -35 -14 3
-20 36 -14 85 2 18 19 -16 24 -50z m91 47 c11 -4 16 -19 16 -42 0 -19 -3 -32
-7 -28 -8 8 -9 13 -12 41 0 8 -8 15 -16 15 -10 0 -15 -10 -15 -31 0 -17 -4
-28 -10 -24 -15 9 -12 42 6 59 18 18 17 18 38 10z m99 -9 c20 -20 8 -69 -19
-74 -10 -2 -22 -8 -25 -13 -4 -6 -8 9 -11 32 -5 59 23 88 55 55z m-2607 -35
c0 -22 -4 -36 -9 -31 -8 8 -1 71 8 71 1 0 2 -18 1 -40z m49 1 c-4 -17 -10 -31
-14 -31 -5 0 -3 15 3 34 13 42 21 39 11 -3z m104 22 c0 -10 -5 -27 -10 -38 -7
-16 -8 -13 -4 13 2 17 0 32 -5 32 -5 0 -14 -15 -20 -32 l-10 -33 3 33 c4 38
-14 39 -24 1 -4 -14 -7 -17 -8 -7 -2 34 11 48 45 48 26 0 34 -4 33 -17z m41 2
c-10 -13 -9 -15 10 -15 16 0 20 4 16 15 -3 8 -1 15 4 15 6 0 10 -9 10 -20 0
-16 -7 -20 -31 -20 -27 0 -30 -2 -19 -15 9 -11 9 -15 1 -15 -6 0 -14 6 -17 14
-7 17 12 56 28 56 7 0 6 -5 -2 -15z m92 3 c-7 -7 -12 -22 -12 -35 0 -13 -4
-23 -9 -23 -8 0 -6 21 5 58 2 6 9 12 16 12 9 0 9 -3 0 -12z m38 -18 c0 -16 -2
-30 -4 -30 -2 0 -6 14 -8 30 -3 17 -1 30 4 30 4 0 8 -13 8 -30z m1742 -38 c-6
-17 -25 -10 -28 11 -1 9 2 15 7 11 5 -3 10 7 10 23 l1 28 7 -30 c4 -16 5 -36
3 -43z m606 10 c9 2 20 17 23 33 6 27 7 26 8 -11 1 -39 -1 -41 -26 -40 -26 1
-28 5 -29 41 -1 34 -1 35 3 7 3 -24 9 -32 21 -30z m-2061 -14 c-3 -7 -5 -2 -5
12 0 14 2 19 5 13 2 -7 2 -19 0 -25z m-40 -20 c-3 -7 -5 -2 -5 12 0 14 2 19 5
13 2 -7 2 -19 0 -25z m412 -8 c40 -11 91 -30 112 -41 33 -16 39 -24 39 -51 l0
-32 -27 27 c-36 34 -103 63 -104 45 0 -10 -2 -10 -6 0 -2 6 -9 12 -14 12 -4 0
-6 -7 -3 -15 4 -9 0 -15 -10 -15 -9 0 -16 7 -16 15 0 10 -9 14 -30 12 -16 -1
-30 -4 -30 -7 0 -3 -10 -6 -22 -7 -11 -1 -24 -7 -28 -13 -4 -7 -10 -11 -14
-11 -20 3 -26 0 -20 -10 4 -7 1 -10 -7 -7 -18 6 -23 51 -9 78 23 44 80 50 189
20z m-1089 0 c8 -5 13 -10 10 -11 -3 0 -14 -2 -25 -5 -27 -5 -48 3 -40 16 8
13 35 13 55 0z m814 -42 c-4 -29 -10 -60 -15 -68 -9 -15 -8 -8 6 83 9 57 17
44 9 -15z m1167 -228 c-8 -109 -8 -104 -8 80 0 155 1 178 8 115 4 -44 4 -132
0 -195z m-1974 214 c2 -6 -10 -8 -33 -6 -25 3 -32 7 -23 13 18 11 51 7 56 -7z
m700 -16 c-3 -7 -5 -2 -5 12 0 14 2 19 5 13 2 -7 2 -19 0 -25z m-904 15 c-7
-2 -19 -2 -25 0 -7 3 -2 5 12 5 14 0 19 -2 13 -5z m77 -27 c0 -49 -9 -66 -35
-66 -31 0 -35 8 -25 50 l8 35 1 -37 c1 -40 9 -46 29 -26 15 15 16 58 1 58 -5
0 -7 5 -4 10 13 21 25 9 25 -24z m360 14 c13 -8 13 -10 -1 -10 -20 0 -31 -44
-15 -61 8 -8 7 -10 -4 -7 -10 3 -14 16 -14 37 1 17 -3 31 -10 31 -6 0 -4 5 4
10 8 5 17 10 20 10 3 0 12 -5 20 -10z m900 6 c0 -3 -4 -8 -10 -11 -5 -3 -10
-1 -10 4 0 6 5 11 10 11 6 0 10 -2 10 -4z m987 -18 c-3 -8 -6 -5 -6 6 -1 11 2
17 5 13 3 -3 4 -12 1 -19z m-2429 -16 c4 -28 -14 -52 -40 -52 -25 0 -33 25
-19 56 15 33 54 30 59 -4z m77 21 c-40 -10 -49 -59 -12 -66 19 -4 18 -4 -5 -6
-24 -1 -28 3 -28 27 0 34 17 52 45 51 20 -1 20 -1 0 -6z m204 -30 l-2 -38 -7
35 c-6 30 -8 32 -14 15 -21 -56 -24 -59 -19 -20 4 38 3 39 -11 21 -16 -19 -16
-19 -16 2 0 18 6 22 35 22 34 0 35 -1 34 -37z m89 15 c3 -14 -3 -18 -28 -18
-37 0 -37 -21 1 -32 22 -6 21 -7 -6 -5 -23 2 -31 7 -33 25 -2 13 2 30 9 38 16
19 53 14 57 -8z m88 7 c3 -8 1 -27 -4 -42 -11 -28 -11 -28 -9 7 1 24 -2 35
-12 35 -8 0 -20 -16 -28 -35 l-13 -35 6 35 c4 19 8 38 11 43 8 13 43 8 49 -8z
m273 -42 c-1 -32 -3 -50 -6 -41 -2 9 -14 18 -26 20 -42 6 -35 78 8 78 24 0 25
-2 24 -57z m50 -11 c1 -7 -3 -10 -9 -7 -5 3 -10 21 -9 38 1 31 1 31 9 7 4 -14
8 -31 9 -38z m2351 -20 c-9 -37 -16 -51 -32 -56 -12 -3 -25 -3 -30 0 -16 10
-5 74 13 74 6 0 5 -9 -1 -20 -7 -12 -7 -27 -2 -36 8 -14 10 -14 21 0 8 9 11
25 8 36 -3 11 -2 20 3 20 4 0 10 10 13 22 12 44 17 10 7 -40z m-1740 38 c0 -5
-7 -10 -15 -10 -8 0 -15 5 -15 10 0 6 7 10 15 10 8 0 15 -4 15 -10z m1070
-145 c11 -83 27 -193 35 -245 8 -52 14 -113 14 -135 -1 -30 -5 -20 -15 40 -29
169 -48 312 -59 430 -12 120 3 67 25 -90z m93 117 c-19 -5 -16 -39 4 -51 21
-11 11 -26 -11 -18 -20 8 -35 67 -23 88 9 15 11 15 26 0 12 -12 13 -17 4 -19z
m-1933 13 c0 -8 -7 -15 -15 -15 -8 0 -15 7 -15 15 0 8 7 15 15 15 8 0 15 -7
15 -15z m2038 -7 c16 -16 15 -53 -3 -68 -18 -15 -52 -5 -57 18 -9 37 2 52 43
61 3 0 10 -4 17 -11z m102 -33 c0 -19 -4 -37 -10 -40 -6 -4 -10 8 -10 29 0 25
-4 36 -15 36 -10 0 -15 -10 -15 -30 0 -16 -4 -30 -10 -30 -5 0 -10 15 -10 34
0 28 4 35 23 38 36 6 47 -2 47 -37z m460 21 c-1 -45 -25 -71 -55 -60 -22 9
-17 74 6 74 5 0 5 -10 0 -23 -13 -35 1 -52 23 -28 14 15 15 24 7 40 -10 17 -9
20 4 15 8 -4 15 -11 15 -18z m52 5 c-21 -13 -11 -57 12 -53 11 2 15 -1 11 -7
-10 -17 -33 -13 -43 7 -12 21 2 62 20 62 10 0 10 -2 0 -9z m-2258 -60 c-4 -23
-9 -40 -11 -37 -3 3 -2 23 2 46 4 23 9 39 11 37 3 -2 2 -23 -2 -46z m373 43
c-3 -3 -12 -4 -19 -1 -8 3 -5 6 6 6 11 1 17 -2 13 -5z m-280 -36 c-3 -7 -5 -2
-5 12 0 14 2 19 5 13 2 -7 2 -19 0 -25z m1913 -17 c0 -5 -6 -14 -14 -20 -16
-13 -32 2 -21 19 8 12 35 13 35 1z m216 -33 c4 -6 2 -14 -4 -16 -7 -2 -12 -14
-12 -27 0 -17 -6 -25 -22 -27 -19 -2 -23 -9 -23 -35 0 -35 -9 -43 -19 -17 -7
17 10 53 31 69 12 9 19 27 22 58 1 11 19 8 27 -5z m-221 -41 c-6 -22 -6 -22
11 -2 16 19 16 18 10 -20 -10 -59 -16 -75 -28 -75 -6 0 -7 7 -3 18 12 30 11
47 -5 47 -10 0 -15 -10 -15 -33 0 -17 -4 -31 -10 -29 -17 6 -17 43 0 57 8 7
15 22 15 35 0 25 9 37 22 29 5 -3 6 -15 3 -27z m175 25 c0 -16 -22 -30 -41
-25 -22 6 -25 19 -6 26 20 8 47 8 47 -1z m-544 -37 c9 -8 11 -15 5 -15 -15 0
-14 -57 2 -64 6 -3 3 -5 -8 -3 -13 1 -21 11 -23 27 -2 14 -8 30 -13 36 -5 6
-4 15 3 22 15 15 16 15 34 -3z m-339 -62 c-2 -16 -4 -5 -4 22 0 28 2 40 4 28
2 -13 2 -35 0 -50z m823 29 c0 -28 -24 -55 -46 -50 -25 4 -29 33 -9 64 13 20
19 22 35 14 11 -6 20 -19 20 -28z m-560 -12 c0 -31 -4 -40 -17 -40 -13 0 -14
3 -5 12 7 7 12 25 12 40 0 15 2 28 5 28 3 0 5 -18 5 -40z m-1493 -2 c-3 -8 -6
-5 -6 6 -1 11 2 17 5 13 3 -3 4 -12 1 -19z m-300 -65 c-3 -10 -5 -4 -5 12 0
17 2 24 5 18 2 -7 2 -21 0 -30z m-427 -74 c23 -6 22 -7 -7 -8 l-33 -1 2 58 1
57 6 -50 c5 -42 10 -50 31 -56z m-92 71 c15 -1 15 -2 0 -11 -10 -5 -18 -19
-18 -29 0 -10 8 -24 18 -30 15 -10 15 -10 -3 -8 -14 2 -21 12 -23 36 -2 17 -8
32 -13 32 -5 0 -4 6 3 14 7 8 15 10 16 5 2 -5 11 -9 20 -9z m449 -11 c-5 -4
-7 -20 -4 -38 4 -18 2 -31 -3 -31 -6 0 -10 13 -10 29 0 17 -4 33 -10 36 -6 4
-5 11 2 19 9 9 15 10 24 2 8 -7 8 -13 1 -17z m-817 -23 c0 -19 6 -37 13 -39 6
-3 1 -6 -13 -6 -23 -1 -25 3 -25 39 0 25 5 40 13 40 7 0 12 -13 12 -34z m107
-11 l1 -40 -6 35 c-9 44 -34 47 -43 5 -6 -29 -7 -28 -8 8 -1 36 1 38 27 35 24
-3 27 -7 29 -43z m88 5 c0 -28 -4 -36 -22 -38 -12 -2 -24 -11 -26 -20 -3 -9
-5 9 -6 41 -1 58 -1 58 27 55 24 -3 27 -7 27 -38z m65 -25 c9 0 17 13 21 35 6
35 6 35 8 -8 1 -42 0 -43 -26 -40 -25 3 -28 7 -30 43 l-1 40 6 -35 c4 -22 13
-35 22 -35z m308 43 c3 -13 -3 -18 -22 -18 -32 0 -34 -17 -3 -30 21 -8 21 -9
2 -9 -39 -2 -59 41 -33 67 17 17 52 11 56 -10z m89 -18 c1 -34 1 -34 -5 -5 -4
17 -14 30 -22 30 -8 0 -18 -13 -21 -30 -6 -29 -7 -28 -8 8 -1 36 1 38 27 35
23 -3 27 -8 29 -38z m93 -9 c0 -41 -3 -51 -21 -56 -11 -4 -23 -4 -26 -1 -4 3
1 6 10 6 10 0 17 5 17 10 0 6 -7 10 -15 10 -8 0 -19 9 -25 20 -15 28 4 60 35
60 23 0 25 -4 25 -49z m2118 -43 c-11 -44 -36 -67 -60 -52 -26 16 9 91 37 80
8 -3 16 2 19 11 12 31 14 7 4 -39z m90 1 c4 -30 -28 -62 -52 -53 -35 14 -6 89
33 82 9 -2 17 -15 19 -29z m92 20 c0 -6 -6 -9 -14 -6 -8 3 -20 0 -26 -8 -16
-20 -8 -51 13 -47 10 2 17 -3 17 -12 0 -13 -4 -14 -25 -4 -42 19 -29 88 17 88
10 0 18 -5 18 -11z m86 -34 c-4 -19 -12 -35 -18 -35 -6 0 -7 7 -3 18 4 9 10
27 13 40 8 37 15 16 8 -23z m-41 -5 c1 -39 -7 -51 -20 -30 -8 12 4 70 13 70 4
0 7 -18 7 -40z m-411 -160 c28 -144 32 -272 9 -263 -12 5 -14 22 -19 163 -1
30 -7 73 -12 95 -14 53 -24 174 -13 155 4 -8 20 -76 35 -150z m-147 118 c-3
-7 -5 -2 -5 12 0 14 2 19 5 13 2 -7 2 -19 0 -25z m-12 -73 c7 -53 9 -56 16
-30 5 23 7 15 8 -33 1 -40 -3 -61 -9 -57 -5 3 -10 12 -10 19 0 8 -7 27 -15 42
-8 17 -15 55 -15 89 1 73 14 57 25 -30z m-1975 54 c11 -8 12 -12 3 -16 -7 -2
-13 -15 -13 -28 0 -13 6 -25 13 -28 6 -2 9 -8 5 -12 -12 -13 -38 16 -38 41 0
13 -5 24 -11 24 -8 0 -8 5 1 15 15 18 20 18 40 4z m425 -76 c-4 -30 -9 -53
-11 -50 -3 2 -1 35 3 73 4 38 9 61 11 50 2 -10 1 -43 -3 -73z m2063 81 c26 -7
29 -29 6 -38 -20 -8 -30 -1 -37 24 -6 22 -3 23 31 14z m-2858 -39 c0 -19 5
-35 10 -35 6 0 10 -4 10 -10 0 -5 -10 -10 -22 -10 -20 0 -23 5 -23 45 0 29 4
45 13 45 7 0 12 -14 12 -35z m106 -10 c1 -34 1 -35 -3 -7 -6 42 -35 40 -44 -3
-6 -27 -7 -25 -8 13 -1 42 0 43 27 40 24 -3 27 -7 28 -43z m94 31 c17 -22 8
-60 -17 -71 -13 -5 -23 -13 -23 -17 0 -5 -4 -8 -10 -8 -11 0 -14 93 -3 103 11
12 40 8 53 -7z m420 10 c0 -3 -4 -8 -10 -11 -5 -3 -10 -1 -10 4 0 6 5 11 10
11 6 0 10 -2 10 -4z m-370 -36 c0 -20 5 -30 15 -30 10 0 15 10 15 30 0 17 5
30 10 30 6 0 10 -15 10 -34 0 -26 -5 -35 -22 -39 -12 -4 -28 -1 -35 5 -15 12
-18 68 -3 68 6 0 10 -13 10 -30z m280 3 c12 -25 14 -26 18 -8 6 30 22 43 22
18 0 -18 -39 -78 -40 -62 0 4 -7 23 -15 43 -18 42 -5 49 15 9z m76 -30 c-10
-10 -19 5 -10 18 6 11 8 11 12 0 2 -7 1 -15 -2 -18z m-151 -13 c-5 -8 -11 -8
-17 -2 -6 6 -7 16 -3 22 5 8 11 8 17 2 6 -6 7 -16 3 -22z m2435 0 c0 -14 -60
-42 -77 -36 -23 9 -10 30 23 37 45 10 54 10 54 -1z m-443 -67 c-3 -10 -5 -2
-5 17 0 19 2 27 5 18 2 -10 2 -26 0 -35z m-180 -30 c-3 -10 -5 -2 -5 17 0 19
2 27 5 18 2 -10 2 -26 0 -35z m190 -45 c-3 -7 -5 -2 -5 12 0 14 2 19 5 13 2
-7 2 -19 0 -25z m-1670 -25 c-3 -10 -5 -2 -5 17 0 19 2 27 5 18 2 -10 2 -26 0
-35z m-209 -18 c-3 -13 -2 -22 3 -20 4 3 5 -4 2 -16 -5 -19 -7 -20 -15 -4 -6
9 -7 27 -4 41 8 32 20 31 14 -1z m501 -20 c0 -5 -4 -3 -9 5 -5 8 -9 22 -9 30
0 16 17 -16 18 -35z m-105 -7 c4 -24 3 -38 -4 -38 -5 0 -10 19 -10 42 0 49 5
47 14 -4z m1172 0 c-4 -24 -9 -54 -12 -68 -4 -20 -3 -22 5 -10 8 12 11 5 11
-27 0 -51 -66 -234 -112 -310 -38 -62 -46 -64 -18 -4 36 73 77 212 100 339 12
67 24 122 27 122 3 0 3 -19 -1 -42z m99 -47 c-4 -25 -10 -40 -12 -33 -3 7 -2
39 3 70 5 36 9 48 12 33 2 -13 1 -45 -3 -70z m-1468 37 c-3 -8 -6 -5 -6 6 -1
11 2 17 5 13 3 -3 4 -12 1 -19z m363 -113 c0 -4 -5 -3 -12 1 -8 5 -9 2 -5 -9
18 -45 20 -52 9 -42 -10 10 -52 136 -52 157 0 6 14 -14 30 -45 17 -31 30 -59
30 -62z m-630 35 c-6 -23 -13 -40 -15 -38 -2 2 1 23 7 46 6 24 13 41 15 38 2
-2 -1 -23 -7 -46z m498 -15 l1 -20 -9 20 c-5 11 -8 31 -8 45 l0 25 8 -25 c4
-14 8 -34 8 -45z m1454 -70 c-9 -67 -10 -68 -11 -20 -1 56 12 142 17 110 1
-11 -1 -51 -6 -90z m-225 28 c-3 -10 -5 -2 -5 17 0 19 2 27 5 18 2 -10 2 -26
0 -35z m30 15 c-3 -8 -6 -5 -6 6 -1 11 2 17 5 13 3 -3 4 -12 1 -19z m-1740
-90 c-2 -13 -4 -5 -4 17 -1 22 1 32 4 23 2 -10 2 -28 0 -40z m1700 30 c-3 -8
-6 -5 -6 6 -1 11 2 17 5 13 3 -3 4 -12 1 -19z m350 0 c-3 -8 -6 -5 -6 6 -1 11
2 17 5 13 3 -3 4 -12 1 -19z m-301 -12 c-4 -18 -2 -25 9 -28 15 -3 14 -5 0
-23 -12 -16 -14 -17 -9 -2 3 9 4 17 0 17 -3 0 -9 -15 -14 -32 -5 -21 -10 -27
-14 -18 -6 16 19 110 28 110 4 0 3 -11 0 -24z m121 -53 c-2 -16 -4 -3 -4 27 0
30 2 43 4 28 2 -16 2 -40 0 -55z m-2027 -54 c23 -6 22 -7 -7 -8 l-33 -1 2 58
1 57 6 -50 c5 -42 10 -50 31 -56z m2067 79 c-3 -8 -6 -5 -6 6 -1 11 2 17 5 13
3 -3 4 -12 1 -19z m-2252 -21 c-20 -11 -19 -32 2 -52 16 -16 15 -17 -3 -13
-13 2 -20 13 -22 36 -2 17 -8 32 -13 32 -5 0 -4 6 3 14 9 10 17 11 30 2 15 -9
15 -12 3 -19z m2015 -82 c-21 -60 -20 -50 3 60 9 46 13 53 15 30 1 -16 -7 -57
-18 -90z m885 95 c-3 -5 -16 -10 -28 -9 -21 0 -21 1 -2 9 28 12 37 12 30 0z
m-3638 -29 c-3 -15 -1 -33 6 -40 8 -8 4 -11 -18 -11 -21 0 -26 3 -16 9 8 5 14
23 15 40 0 17 5 31 10 31 5 0 6 -13 3 -29z m116 15 c14 -36 -24 -79 -53 -61
-14 9 -13 48 2 63 16 16 45 15 51 -2z m57 5 c0 -6 -4 -13 -10 -16 -5 -3 -10 1
-10 9 0 9 5 16 10 16 6 0 10 -4 10 -9z m36 -4 c2 -7 1 -24 -4 -38 -9 -22 -10
-21 -14 14 -4 36 7 51 18 24z m157 3 c-14 -6 -23 -18 -23 -30 0 -12 10 -25 23
-30 22 -10 22 -10 -3 -7 -43 4 -41 78 2 76 l23 0 -22 -9z m102 1 c-11 -4 -23
-21 -26 -37 -6 -27 -7 -27 -8 9 -1 34 1 37 27 36 23 0 24 -1 7 -8z m103 -13
c3 -13 -3 -18 -22 -18 -32 0 -34 -17 -3 -30 l22 -9 -23 0 c-30 -1 -51 41 -32
64 17 20 54 15 58 -7z m90 -20 c3 -36 2 -38 -27 -38 -26 0 -31 4 -31 25 0 18
5 25 20 25 27 0 25 17 -2 23 -16 4 -13 5 7 4 27 -2 30 -6 33 -39z m190 20 c3
-13 -3 -18 -22 -18 -32 0 -34 -17 -3 -30 21 -8 21 -9 -5 -9 -30 -1 -44 25 -33
60 8 26 58 23 63 -3z m172 13 c0 -5 -3 -23 -6 -40 -5 -23 -12 -31 -28 -31 -19
1 -19 2 -3 11 20 12 23 55 5 62 -7 3 -3 6 10 6 12 1 22 -3 22 -8z m2545 -16
c0 -14 -7 -20 -23 -20 -13 0 -30 -9 -38 -20 -12 -17 -16 -17 -28 -5 -12 12
-12 18 -3 31 31 41 92 50 92 14z m-2510 -82 c-10 -40 -20 -72 -22 -69 -3 2 4
41 14 85 10 45 20 76 22 70 2 -6 -4 -45 -14 -86z m512 65 c-3 -7 -5 -2 -5 12
0 14 2 19 5 13 2 -7 2 -19 0 -25z m1703 22 c0 -5 -6 -10 -14 -10 -8 0 -18 5
-21 10 -3 6 3 10 14 10 12 0 21 -4 21 -10z m50 -10 c0 -5 -9 -10 -21 -10 -11
0 -17 5 -14 10 3 6 13 10 21 10 8 0 14 -4 14 -10z m-3173 -32 c-3 -8 -6 -5 -6
6 -1 11 2 17 5 13 3 -3 4 -12 1 -19z m2011 5 c-10 -2 -28 -2 -40 0 -13 2 -5 4
17 4 22 1 32 -1 23 -4z m301 -2 c10 -7 15 -38 19 -113 4 -96 2 -106 -22 -152
-19 -35 -23 -47 -11 -43 8 4 14 3 13 -1 -2 -6 6 -29 63 -176 10 -27 19 -57 19
-67 0 -11 5 -19 10 -19 6 0 9 -3 8 -7 -7 -24 19 -110 73 -244 33 -83 59 -152
57 -153 -65 -38 -214 -83 -333 -101 -185 -27 -501 0 -670 57 -52 18 -95 36
-95 39 0 4 6 14 13 21 6 7 13 20 15 28 10 48 68 184 89 206 13 14 27 39 30 55
3 17 14 36 25 43 36 26 47 103 42 305 -2 102 -7 198 -10 213 -11 53 32 98 86
89 8 -2 102 -9 209 -16 188 -12 196 -12 240 7 85 37 108 42 130 29z m362 -18
c-12 -20 -14 -14 -5 12 4 9 9 14 11 11 3 -2 0 -13 -6 -23z m550 13 c-18 -21
-4 -44 25 -38 28 5 33 -18 9 -38 -12 -10 -21 -10 -38 -2 -12 6 -32 13 -43 17
-24 6 -37 48 -21 64 6 6 26 11 45 11 28 0 32 -3 23 -14z m-2037 -45 c-4 -23
-9 -40 -11 -37 -3 3 -2 23 2 46 4 23 9 39 11 37 3 -2 2 -23 -2 -46z m243 -73
c-2 -24 -4 -5 -4 42 0 47 2 66 4 43 2 -24 2 -62 0 -85z m2028 102 c-3 -5 -15
-10 -25 -10 -13 0 -17 -5 -14 -15 4 -8 16 -15 28 -15 19 0 22 -4 18 -30 -2
-16 -7 -30 -11 -30 -3 -1 -25 -5 -48 -9 -41 -8 -43 -7 -43 15 0 14 -6 24 -14
24 -16 0 -29 27 -20 41 10 18 32 9 38 -16 4 -16 13 -25 26 -25 27 0 34 17 11
31 -27 17 -6 49 32 49 16 0 26 -4 22 -10z m-2243 -30 c3 -17 1 -33 -4 -36 -4
-3 -8 11 -8 30 0 44 6 47 12 6z m106 -70 l0 -25 -8 25 c-4 14 -8 34 -8 45 l-1
20 9 -20 c5 -11 8 -31 8 -45z m-1198 -5 c0 -31 5 -47 18 -54 15 -9 15 -10 -5
-11 -20 0 -23 5 -23 43 0 24 -5 48 -12 55 -9 9 -8 12 5 12 13 0 17 -9 17 -45z
m100 35 c0 -5 -5 -10 -11 -10 -5 0 -7 5 -4 10 3 6 8 10 11 10 2 0 4 -4 4 -10z
m388 -53 c-9 -43 -12 -47 -39 -47 -24 0 -29 4 -29 24 0 14 7 32 16 40 22 23
28 20 10 -6 -20 -28 -20 -48 -1 -48 15 0 38 34 29 43 -3 3 0 15 6 27 17 32 20
21 8 -33z m2476 45 c2 -4 1 -14 -3 -21 -6 -9 -10 -7 -14 8 -5 20 7 29 17 13z
m-2866 -50 c2 -18 7 -32 13 -32 5 0 9 -4 9 -9 0 -5 -11 -8 -25 -6 -27 2 -47
15 -25 15 9 0 11 10 7 36 -4 25 -2 34 6 31 7 -2 13 -18 15 -35z m480 6 c4 -35
-35 -65 -56 -44 -16 16 -9 66 9 66 6 0 6 -6 -1 -19 -15 -29 -12 -41 9 -41 25
0 37 36 19 57 -11 14 -11 16 2 11 8 -2 16 -16 18 -30z m55 6 c-26 -26 -23 -39
12 -46 18 -3 18 -4 3 -10 -17 -7 -48 14 -48 33 0 12 37 49 50 49 5 0 -3 -12
-17 -26z m2395 8 c2 -7 -3 -12 -12 -12 -9 0 -16 7 -16 16 0 17 22 14 28 -4z
m-3280 -24 c-3 -29 -7 -33 -32 -33 -37 0 -45 20 -14 36 21 11 22 11 9 -5 -16
-19 -9 -31 12 -23 9 3 13 16 12 31 -2 14 1 26 7 26 5 0 8 -15 6 -32z m68 16
c-9 -8 -16 -23 -16 -31 0 -9 -3 -14 -6 -10 -12 11 6 57 22 57 14 0 14 -2 0
-16z m897 -28 c5 -34 4 -38 -8 -25 -8 8 -11 25 -8 42 7 34 9 32 16 -17z m2512
24 c3 -5 -3 -10 -15 -10 -12 0 -18 5 -15 10 3 6 10 10 15 10 5 0 12 -4 15 -10z
m-2188 -77 c-2 -16 -4 -5 -4 22 0 28 2 40 4 28 2 -13 2 -35 0 -50z m2298 46
c11 -17 -1 -21 -15 -4 -8 9 -8 15 -2 15 6 0 14 -5 17 -11z m-305 -14 c0 -19
-37 -39 -42 -23 -5 15 12 37 30 38 6 0 12 -7 12 -15z m86 -125 c-1 -59 -3 -67
-13 -53 -16 21 -17 64 -1 98 6 14 12 25 13 25 1 0 1 -32 1 -70z m92 13 c1 -33
7 -52 19 -60 15 -11 12 -13 -23 -13 -25 0 -34 3 -26 9 8 4 13 21 12 37 -1 16
-1 32 0 37 1 4 4 12 5 17 1 6 3 12 4 15 4 18 9 -2 9 -42z m-3568 -6 c0 -24 5
-48 12 -55 9 -9 8 -12 -4 -12 -19 0 -28 20 -28 65 0 18 -6 36 -12 38 -7 3 -3
6 10 6 19 1 22 -4 22 -42z m750 -7 c0 -27 -4 -50 -8 -50 -4 0 -8 12 -7 27 0
18 -6 29 -17 31 -21 4 -25 -37 -6 -56 9 -9 9 -12 0 -12 -6 0 -16 9 -22 20 -14
26 3 60 30 60 11 0 20 7 20 15 0 8 2 15 5 15 3 0 5 -22 5 -50z m73 40 c-41
-17 -37 -89 5 -91 9 0 12 -3 5 -5 -7 -3 -21 0 -32 6 -40 21 -18 101 27 99 13
0 11 -3 -5 -9z m87 -20 c20 0 30 -20 29 -53 -1 -16 -3 -13 -10 11 -5 17 -16
32 -24 32 -8 0 -15 -13 -18 -32 -2 -19 -4 -9 -4 22 0 30 1 47 4 38 2 -10 13
-18 23 -18z m2768 -2 c14 -14 16 -64 3 -73 -5 -3 -11 7 -13 22 -4 38 -31 36
-39 -2 -5 -22 -7 -25 -9 -10 -9 61 24 97 58 63z m95 -9 c15 -24 0 -69 -23 -69
-10 0 -24 -8 -29 -17 -8 -14 -11 -15 -11 -3 -1 8 -3 31 -6 50 -7 53 43 81 69
39z m-3683 -19 c0 -17 7 -33 18 -39 14 -9 11 -10 -16 -11 -30 0 -31 2 -20 20
10 16 10 24 0 40 -10 17 -10 20 3 20 10 0 15 -10 15 -30z m200 16 c6 -8 10
-25 8 -38 -2 -18 -9 -23 -33 -23 -23 0 -30 4 -30 20 0 13 8 21 23 23 12 2 22
7 22 12 0 5 -10 11 -22 13 -22 4 -22 4 -2 6 12 0 27 -6 34 -13z m96 -11 c7
-27 -10 -55 -32 -55 -8 0 -14 -4 -14 -10 0 -5 -4 -10 -10 -10 -11 0 -14 83 -3
93 3 4 17 7 29 7 17 0 25 -7 30 -25z m92 -12 c3 -25 -1 -33 -20 -38 -13 -4
-26 -13 -30 -19 -4 -6 -8 13 -8 42 0 52 1 53 28 50 22 -2 28 -8 30 -35z m90
15 c2 -10 -1 -18 -7 -18 -6 0 -11 7 -11 15 0 8 -7 15 -15 15 -9 0 -15 -6 -14
-12 3 -29 -2 -49 -11 -43 -14 9 -13 38 2 53 17 17 52 11 56 -10z m89 -18 c1
-34 1 -34 -5 -5 -4 17 -14 30 -22 30 -8 0 -18 -13 -21 -30 -6 -29 -7 -28 -8 8
-1 36 1 38 27 35 23 -3 27 -8 29 -38z m353 0 c0 -29 -4 -40 -15 -40 -13 0 -13
3 -3 20 10 16 10 24 0 40 -10 17 -10 20 3 20 11 0 15 -11 15 -40z m417 18 c-3
-8 -6 -5 -6 6 -1 11 2 17 5 13 3 -3 4 -12 1 -19z m1979 11 c3 -6 1 -16 -5 -22
-8 -8 -11 -7 -11 5 0 9 -6 19 -12 21 -8 3 -7 6 4 6 9 1 20 -4 24 -10z m-3226
-54 c0 -8 -4 -15 -10 -15 -5 0 -10 7 -10 15 0 8 5 15 10 15 6 0 10 -7 10 -15z
m1527 -27 c-3 -7 -5 -2 -5 12 0 14 2 19 5 13 2 -7 2 -19 0 -25z m-1150 16 c-3
-3 -12 -4 -19 -1 -8 3 -5 6 6 6 11 1 17 -2 13 -5z m-467 -113 c0 -39 4 -51 18
-54 13 -4 11 -5 -5 -6 -20 -1 -23 4 -23 35 0 19 -5 44 -10 55 -8 15 -7 19 5
19 11 0 15 -12 15 -49z m660 -11 c0 -46 -2 -50 -24 -50 -35 0 -52 24 -37 56 7
17 17 24 27 20 8 -3 17 1 20 9 10 26 14 16 14 -35z m78 43 c-21 -3 -28 -12
-36 -41 -10 -37 -10 -37 -11 -6 -1 37 15 54 49 53 l25 -2 -27 -4z m939 -25
c-3 -7 -5 -2 -5 12 0 14 2 19 5 13 2 -7 2 -19 0 -25z m-1777 -53 c9 0 17 13
21 35 l6 35 2 -41 c1 -35 -3 -43 -21 -47 -32 -9 -38 -1 -37 46 l2 42 6 -35 c4
-22 12 -35 21 -35z m286 57 c6 -4 15 -22 19 -39 6 -32 5 -33 -24 -33 -34 0
-49 16 -32 33 9 9 11 8 6 -5 -6 -14 -2 -18 14 -18 18 0 21 5 18 28 -3 17 -10
27 -20 26 -9 -1 -14 2 -11 7 6 11 15 11 30 1z m102 -4 c19 -19 14 -56 -8 -68
-11 -6 -20 -7 -20 -3 0 4 -7 -2 -15 -13 -13 -17 -14 -15 -15 33 0 51 2 54 41
62 3 0 10 -4 17 -11z m92 -2 c17 -22 8 -60 -15 -65 -11 -2 -23 -8 -27 -15 -4
-6 -8 10 -8 36 0 42 7 54 31 57 4 1 12 -6 19 -13z m88 2 c15 -15 16 -28 2 -28
-5 0 -9 6 -7 13 1 6 -4 12 -12 12 -8 0 -16 -12 -18 -27 -3 -25 0 -28 24 -29
25 -2 25 -2 5 -6 -44 -9 -72 44 -34 66 22 13 26 13 40 -1z m101 -37 c-2 -34
-2 -34 -6 -6 -3 17 -10 36 -15 43 -8 9 -7 11 6 6 11 -4 16 -17 15 -43z m-47 4
c-2 -19 -6 -35 -8 -35 -2 0 -4 16 -4 35 0 19 4 35 8 35 4 0 6 -16 4 -35z m405
-27 c-3 -7 -5 -2 -5 12 0 14 2 19 5 13 2 -7 2 -19 0 -25z m-837 7 c0 -8 -7
-15 -15 -15 -16 0 -20 12 -8 23 11 12 23 8 23 -8z m3524 0 c-4 -8 -8 -15 -10
-15 -2 0 -4 7 -4 15 0 8 4 15 10 15 5 0 7 -7 4 -15z m-967 -37 c-3 -7 -5 -2
-5 12 0 14 2 19 5 13 2 -7 2 -19 0 -25z m1048 21 c9 -14 -3 -59 -16 -59 -6 0
-6 7 1 20 6 11 8 25 5 30 -8 13 -35 13 -35 0 0 -5 -5 -10 -11 -10 -8 0 -8 5 1
15 14 17 46 20 55 4z m75 2 c-32 -9 -43 -61 -13 -62 11 0 13 -3 5 -6 -21 -8
-43 17 -36 41 8 26 23 36 49 35 16 -1 15 -2 -5 -8z m298 -13 c3 -15 -4 -18
-33 -18 -42 0 -44 -20 -4 -31 22 -6 22 -7 3 -8 -32 -1 -47 21 -34 53 8 22 15
27 37 24 17 -2 29 -10 31 -20z m-161 -35 c-3 -10 -5 -4 -5 12 0 17 2 24 5 18
2 -7 2 -21 0 -30z m55 -15 c-8 -8 -9 -4 -5 13 4 13 8 18 11 10 2 -7 -1 -18 -6
-23z m-3683 -46 c-14 -6 -11 -60 4 -66 6 -3 3 -5 -8 -3 -15 2 -21 11 -23 35
-2 17 -8 32 -13 32 -5 0 -4 9 3 20 11 18 13 18 29 2 9 -9 12 -18 8 -20z m2380
-22 c23 0 46 -26 65 -72 9 -20 20 -38 25 -40 14 -5 71 -106 71 -126 0 -11 -19
-25 -56 -40 -31 -13 -57 -22 -58 -20 -1 2 -14 39 -29 83 -28 84 -48 189 -45
240 l1 30 4 -27 c3 -19 10 -28 22 -28z m-2109 30 c0 -5 -10 -10 -22 -10 -19 0
-20 2 -8 10 19 13 30 13 30 0z m-640 -30 c0 -17 7 -33 18 -39 14 -9 11 -10
-17 -11 -27 0 -32 3 -23 12 16 16 15 55 0 61 -8 3 -6 6 5 6 12 1 17 -7 17 -29z
m109 -12 l-2 -43 -6 35 c-4 22 -12 35 -21 35 -9 0 -17 -13 -21 -35 l-6 -35 -2
43 c-1 40 0 42 29 42 29 0 30 -2 29 -42z m96 22 c9 -29 -4 -60 -25 -60 -11 0
-24 -8 -29 -17 -8 -14 -10 -4 -11 40 0 56 0 57 29 57 21 0 32 -6 36 -20z m48
-47 c12 -11 27 10 27 38 0 16 5 29 11 29 6 0 9 -16 7 -37 -3 -35 -6 -38 -33
-38 -28 0 -30 3 -32 40 -2 40 -2 40 6 7 5 -18 11 -35 14 -39z m273 40 l10 -28
17 30 18 30 -7 -35 c-3 -19 -8 -38 -11 -42 -9 -16 -31 -7 -36 15 -2 12 -8 30
-12 40 -4 9 -3 17 2 17 5 0 14 -12 19 -27z m2871 5 c-3 -8 -6 -5 -6 6 -1 11 2
17 5 13 3 -3 4 -12 1 -19z m-554 -5 c-4 -11 -3 -14 5 -9 7 4 14 0 18 -11 3
-10 13 -31 22 -48 15 -27 35 -122 24 -110 -14 13 -81 178 -76 186 9 15 14 10
7 -8z m1284 -33 c-8 -22 -8 -38 0 -60 9 -24 9 -30 -2 -30 -26 0 -35 75 -13
109 18 29 28 16 15 -19z m-3517 15 c-7 -9 -15 -13 -17 -11 -7 7 7 26 19 26 6
0 6 -6 -2 -15z m3245 5 c3 -5 1 -10 -4 -10 -6 0 -11 5 -11 10 0 6 2 10 4 10 3
0 8 -4 11 -10z m85 -35 c0 -31 5 -47 18 -54 16 -10 16 -10 -1 -11 -20 0 -23 8
-30 68 -3 23 -1 42 4 42 5 0 9 -20 9 -45z m116 -62 c-7 -18 -48 -13 -54 7 -4
13 -3 13 11 2 13 -11 17 -10 27 8 15 28 -5 57 -26 39 -11 -9 -14 -8 -14 5 0
10 9 16 25 16 16 0 26 6 27 18 1 9 3 -5 5 -32 2 -27 2 -55 -1 -63z m201 83
c-3 -8 -9 -30 -12 -49 -8 -39 -40 -56 -64 -33 -23 23 -6 66 29 73 17 3 30 9
30 14 0 5 5 9 11 9 6 0 9 -6 6 -14z m-3799 -8 c-6 -18 -28 -21 -28 -4 0 9 7
16 16 16 9 0 14 -5 12 -12z m3880 -26 c5 -33 -26 -65 -56 -57 -15 4 -21 2 -17
-5 4 -6 -3 -10 -17 -10 -20 1 -21 2 -5 11 9 5 17 20 17 31 0 52 71 79 78 30z
m77 21 c-54 -13 -65 -72 -12 -64 4 0 7 -3 7 -9 0 -14 -23 -13 -38 2 -28 28 0
79 41 77 20 -1 21 -2 2 -6z m-2727 -47 c-1 -14 -6 -22 -11 -19 -4 2 -5 -6 -2
-20 6 -21 -23 -142 -32 -134 -1 2 2 30 8 63 6 32 11 68 10 78 0 19 16 56 24
56 3 0 4 -11 3 -24z m1685 -166 c9 -47 19 -103 22 -125 4 -22 9 -51 12 -65 3
-14 3 -22 -1 -19 -4 4 -18 54 -31 111 -12 57 -31 122 -40 143 -9 22 -18 63
-20 90 l-3 50 23 -50 c12 -28 30 -88 38 -135z m-2423 123 c-11 -17 -11 -17 -6
0 3 10 6 24 7 30 0 9 2 9 5 0 3 -7 0 -20 -6 -30z m2507 5 c-3 -8 -6 -5 -6 6
-1 11 2 17 5 13 3 -3 4 -12 1 -19z m643 12 c0 -5 -2 -10 -4 -10 -3 0 -8 5 -11
10 -3 6 -1 10 4 10 6 0 11 -4 11 -10z m-501 -60 c0 -10 -3 -8 -9 5 -12 27 -12
43 0 25 5 -8 9 -22 9 -30z m-85 -82 l5 -53 -14 60 c-8 33 -14 69 -14 80 1 33
16 -26 23 -87z m-2290 1 c-24 -49 -44 -93 -44 -97 -1 -4 -9 -25 -20 -47 -28
-58 -24 -25 4 40 31 68 25 73 -8 6 -26 -56 -34 -82 -41 -144 -3 -23 -16 -84
-28 -135 -24 -95 -22 -110 16 -104 19 4 24 -23 5 -34 -7 -4 -8 -3 -4 4 4 7 1
12 -8 12 -8 0 -21 3 -30 6 -10 4 -19 -5 -29 -29 -31 -72 -46 -53 -26 32 7 31
6 47 -2 57 -9 11 -8 14 4 14 9 0 18 13 22 33 4 17 12 37 17 44 5 7 7 16 4 21
-8 13 13 82 25 82 5 0 9 6 7 13 -6 29 47 174 85 231 39 59 48 71 42 56 -5 -12
-4 -12 7 1 7 9 20 18 28 22 8 3 16 6 16 6 1 1 -18 -40 -42 -90z m2194 21 c0
-9 -3 -7 -8 5 -5 11 -8 29 -8 40 0 16 2 15 8 -5 4 -14 8 -32 8 -40z m521 33
c0 -25 -1 -26 -9 -8 -12 27 -12 35 0 35 6 0 10 -12 9 -27z m186 -36 c0 -52 -2
-61 -12 -48 -15 20 -16 66 -3 92 6 10 12 19 13 19 1 0 2 -29 2 -63z m195 53
c0 -5 -4 -10 -10 -10 -5 0 -10 5 -10 10 0 6 5 10 10 10 6 0 10 -4 10 -10z m84
-6 c11 -28 6 -80 -8 -100 -19 -25 -31 -12 -16 16 11 20 9 45 -6 84 -4 10 -1
16 9 16 8 0 18 -7 21 -16z m-760 -44 c5 -17 4 -20 -2 -10 -5 8 -13 26 -16 40
-5 17 -4 20 2 10 5 -8 13 -26 16 -40z m416 -5 c0 -54 0 -55 -30 -55 -16 0 -30
4 -30 9 0 5 9 7 19 4 13 -3 21 2 26 16 8 28 -3 44 -26 38 -11 -3 -19 -1 -19 4
0 5 11 9 25 9 16 0 25 6 25 15 0 8 2 15 5 15 3 0 5 -25 5 -55z m-3136 -44 c-4
-17 -9 -30 -11 -27 -3 2 -2 19 2 36 4 17 9 30 11 27 2 -2 1 -18 -2 -36z m2746
-16 c0 -5 -5 -3 -10 5 -5 8 -10 20 -10 25 0 6 5 3 10 -5 5 -8 10 -19 10 -25z
m-2452 -44 c-12 -22 -24 -38 -26 -37 -5 6 19 61 31 68 19 12 19 10 -5 -31z
m92 3 c-14 -35 -12 -41 5 -18 30 39 13 -3 -46 -121 -64 -126 -76 -146 -64
-106 5 16 4 21 -4 17 -18 -11 -13 3 20 60 17 30 28 58 24 64 -3 5 -3 10 2 10
4 0 17 21 27 48 18 44 34 72 42 72 2 0 -1 -12 -6 -26z m-30 -12 c0 -5 -7 -17
-15 -28 -14 -18 -14 -17 -4 9 12 27 19 34 19 19z m2817 -39 c-3 -10 -5 -4 -5
12 0 17 2 24 5 18 2 -7 2 -21 0 -30z m46 4 c-3 -5 -9 -3 -14 4 -4 7 -5 17 -2
22 3 5 9 3 14 -4 4 -7 5 -17 2 -22z m44 1 c-3 -7 -5 -2 -5 12 0 14 2 19 5 13
2 -7 2 -19 0 -25z m53 6 c0 -8 -4 -14 -10 -14 -5 0 -10 9 -10 21 0 11 5 17 10
14 6 -3 10 -13 10 -21z m-1120 -4 c0 -4 11 -18 23 -31 13 -13 27 -36 30 -51 4
-14 10 -34 13 -45 5 -15 4 -16 -6 -3 -12 15 -11 3 6 -65 8 -34 -58 97 -77 154
-23 65 -23 62 -4 55 8 -4 15 -10 15 -14z m-1878 -43 c-7 -8 -9 -17 -6 -20 3
-3 -1 -16 -11 -29 l-16 -23 7 30 c9 39 24 68 31 61 3 -3 1 -12 -5 -19z m836
-152 c45 -88 75 -151 66 -140 -27 36 -175 334 -151 304 2 -2 41 -76 85 -164z
m-699 133 c-12 -23 -12 -23 10 -4 25 23 25 24 6 -37 -8 -26 -10 -45 -5 -42 6
3 7 -1 4 -9 -3 -9 -12 -16 -20 -16 -8 0 -15 -4 -15 -10 -1 -5 -2 -14 -3 -20 0
-5 -18 -32 -39 -60 -21 -27 -43 -61 -49 -75 -17 -37 -28 -30 -28 16 0 24 4 38
10 34 6 -3 8 -18 5 -33 -3 -16 1 -11 10 13 9 22 22 52 30 67 9 18 10 28 3 30
-6 2 -2 21 11 46 13 26 26 40 33 36 7 -4 8 -3 4 5 -4 6 2 27 14 46 24 39 37
48 19 13z m1655 6 c3 -8 2 -12 -4 -9 -6 3 -10 10 -10 16 0 14 7 11 14 -7z
m-660 -118 c-26 -64 -48 -115 -51 -113 -2 3 17 57 43 121 25 64 48 115 50 113
2 -2 -17 -56 -42 -121z m-836 67 c-14 -16 -38 -50 -53 -78 -39 -69 -94 -153
-105 -160 -5 -3 -7 -12 -3 -20 3 -9 -1 -15 -10 -15 -9 0 -22 -9 -30 -21 -25
-35 -29 -3 -5 38 12 21 25 40 28 43 3 3 28 37 55 75 27 39 53 71 57 73 4 2 15
19 24 39 14 29 38 49 63 52 3 1 -7 -11 -21 -26z m-678 -30 c-11 -17 -11 -17
-6 0 3 10 6 24 7 30 0 9 2 9 5 0 3 -7 0 -20 -6 -30z m2229 -18 c13 -22 15 -31
6 -20 -18 22 -53 86 -38 70 6 -5 20 -28 32 -50z m-2889 30 c20 -24 -3 -65 -35
-65 -21 0 -25 5 -25 28 0 46 35 68 60 37z m95 3 c3 -7 1 -26 -4 -43 l-9 -30
-1 27 c-1 14 -4 33 -7 42 -3 9 -1 16 5 16 7 0 14 -6 16 -12z m165 4 c0 -4 -9
-8 -20 -8 -11 0 -20 4 -20 8 0 4 9 8 20 8 11 0 20 -4 20 -8z m-214 -36 c-6
-19 -12 -33 -14 -31 -7 6 9 65 17 65 5 0 3 -15 -3 -34z m3112 9 c-3 -3 -9 2
-12 12 -6 14 -5 15 5 6 7 -7 10 -15 7 -18z m-2918 -10 l-25 -14 24 -9 c14 -5
20 -12 14 -15 -5 -4 -18 0 -29 7 -15 12 -16 16 -5 30 7 9 21 16 30 16 11 -1 8
-5 -9 -15z m404 -33 c3 -5 -1 -9 -9 -9 -8 0 -15 4 -15 9 0 4 4 8 9 8 6 0 12
-4 15 -8z m-576 -92 c-10 -30 -9 -44 8 -85 7 -18 6 -18 -9 -6 -25 20 -22 121
4 121 4 0 3 -14 -3 -30z m532 -41 c0 -27 -4 -48 -9 -45 -4 3 -7 16 -6 28 1 13
3 33 4 46 2 43 11 21 11 -29z m-435 -8 c-3 -5 2 -17 11 -25 14 -15 12 -16 -18
-16 -23 0 -29 3 -19 9 8 5 14 23 14 41 0 24 3 28 9 16 5 -9 7 -20 3 -25z m67
9 c-2 -16 -6 -30 -8 -30 -2 0 -4 14 -4 30 0 17 4 30 8 30 5 0 7 -13 4 -30z
m745 8 c-3 -8 -6 -5 -6 6 -1 11 2 17 5 13 3 -3 4 -12 1 -19z m1129 -25 c-8
-15 -15 -25 -16 -21 0 12 23 58 27 54 3 -2 -2 -17 -11 -33z m-1326 -11 c0 -15
-2 -15 -10 -2 -13 20 -13 33 0 25 6 -3 10 -14 10 -23z m224 -21 c-7 -9 -34 10
-34 24 0 13 3 12 18 -2 10 -10 17 -20 16 -22z m-298 14 c25 -13 26 -15 8 -15
-12 0 -27 7 -34 15 -16 19 -10 19 26 0z m-59 -11 c-3 -3 -12 -4 -19 -1 -8 3
-5 6 6 6 11 1 17 -2 13 -5z m1359 -52 c24 -29 37 -25 65 22 25 41 24 21 -1
-29 -28 -54 -26 -75 5 -75 29 0 95 -25 95 -36 0 -11 -92 5 -117 21 -18 12 -23
13 -23 2 0 -7 4 -17 9 -22 4 -6 6 -27 4 -48 -5 -32 -9 -38 -27 -35 -17 2 -21
10 -22 38 0 19 7 47 15 62 9 15 12 30 9 34 -10 9 -39 -16 -32 -27 3 -5 0 -9
-5 -9 -16 0 -13 32 5 59 16 22 15 26 -5 65 -12 22 -16 32 -9 22 7 -10 22 -30
34 -44z m-1789 -4 c-3 -8 -6 -5 -6 6 -1 11 2 17 5 13 3 -3 4 -12 1 -19z m953
-65 c0 -23 5 -44 13 -46 7 -3 5 -6 -5 -6 -15 -1 -18 7 -18 43 0 25 -4 48 -10
51 -5 3 -10 14 -10 23 0 13 2 13 15 -4 8 -10 15 -38 15 -61z m-70 47 c0 -5
-12 -10 -26 -10 -32 0 -27 -22 7 -31 24 -7 24 -7 -3 -8 -21 -1 -28 -6 -28 -20
0 -14 8 -21 28 -24 26 -4 25 -4 -5 -6 -29 -1 -32 2 -36 32 -2 17 -5 1 -7 -38
-2 -67 -3 -68 -10 -26 -4 25 -3 64 2 87 8 36 14 43 36 47 15 2 30 5 35 6 4 0
7 -3 7 -9z m-380 -92 c23 -3 31 1 40 20 6 14 13 22 15 20 7 -7 -41 -94 -81
-149 -18 -25 -53 -58 -76 -74 l-43 -27 51 53 c28 30 61 71 75 91 13 21 27 38
32 38 4 0 7 5 7 10 0 6 -13 10 -30 10 -30 0 -30 0 -28 53 l2 52 3 -46 c4 -43
7 -47 33 -51z m269 64 c-14 -5 -11 -60 4 -65 7 -3 5 -6 -5 -6 -13 -1 -18 7
-18 28 0 17 -4 33 -10 36 -6 4 -5 11 2 19 9 9 16 10 24 2 7 -6 8 -12 3 -14z
m-456 1 c-20 -8 -16 -61 5 -66 13 -4 11 -5 -5 -6 -20 -1 -23 4 -23 32 0 35 6
48 24 46 6 0 5 -3 -1 -6z m105 -5 c19 -19 14 -26 -15 -30 -33 -4 -34 -20 -1
-30 19 -6 18 -7 -7 -5 -23 2 -31 7 -33 25 -6 41 30 66 56 40z m170 -24 c2 -16
9 -32 15 -36 7 -4 -4 -7 -23 -7 -19 1 -27 3 -17 6 20 5 23 43 5 62 -11 11 -10
13 2 9 8 -3 17 -18 18 -34z m82 25 l-25 -10 28 -15 c16 -9 26 -21 24 -27 -4
-14 -67 -22 -67 -9 0 5 11 7 25 4 30 -5 34 14 5 23 -35 11 -24 46 14 44 19 0
18 -1 -4 -10z m-520 -14 c0 -9 -9 -15 -25 -15 -34 0 -32 -28 3 -33 26 -4 26
-4 -4 -6 -31 -1 -44 12 -44 45 0 10 8 12 30 8 19 -4 30 -2 30 5 0 6 2 11 5 11
3 0 5 -7 5 -15z m870 -13 c-17 -6 -11 -22 13 -32 22 -10 22 -10 -3 -7 -26 2
-37 25 -25 55 5 14 7 14 15 2 6 -9 6 -16 0 -18z m-780 -12 c0 -26 -3 -30 -29
-30 -47 0 -48 36 -1 53 27 10 30 7 30 -23z m2756 -56 c-4 -44 -9 -48 -41 -40
-22 6 -26 11 -23 39 2 24 8 33 26 35 15 2 22 10 23 25 0 21 1 21 10 -2 5 -13
8 -39 5 -57z m91 54 c-2 -7 0 -23 4 -35 5 -14 5 -23 -1 -23 -6 0 -9 -3 -9 -7
4 -22 -3 -33 -19 -33 -25 0 -42 19 -42 47 0 22 31 48 44 36 3 -3 6 1 6 10 0
10 5 17 11 17 6 0 9 -6 6 -12z m-571 -52 c-5 -23 -3 -36 6 -39 7 -3 1 -6 -14
-6 -26 -1 -26 -1 -12 29 9 16 13 34 9 40 -3 5 -1 10 6 10 7 0 9 -11 5 -34z
m96 27 c-26 -5 -37 -25 -28 -48 5 -13 10 -14 28 -4 22 11 22 11 5 -7 -23 -24
-53 -7 -49 27 3 27 19 39 47 37 17 -1 16 -1 -3 -5z m90 0 c-16 -3 -25 -14 -29
-34 -3 -16 -9 -29 -13 -29 -7 0 -5 23 6 58 2 6 16 11 31 11 24 -2 25 -2 5 -6z
m196 -9 c5 -9 7 -27 4 -40 -4 -20 -10 -24 -31 -22 -34 4 -37 41 -3 46 12 2 22
7 22 12 0 5 -10 11 -22 13 l-23 4 22 2 c12 0 26 -6 31 -15z m-157 -25 c-5 -13
-10 -19 -10 -12 -1 15 10 45 15 40 3 -2 0 -15 -5 -28z m-24 -21 c-3 -7 -5 -2
-5 12 0 14 2 19 5 13 2 -7 2 -19 0 -25z m-1957 -30 c0 -5 6 -24 14 -41 29 -66
48 -126 43 -139 -6 -16 -47 75 -47 105 -1 12 -7 33 -15 47 -17 29 -19 54 -5
45 6 -3 10 -11 10 -17z m2027 -25 c-3 -10 -5 -2 -5 17 0 19 2 27 5 18 2 -10 2
-26 0 -35z m330 -30 c-3 -10 -5 -4 -5 12 0 17 2 24 5 18 2 -7 2 -21 0 -30z
m-416 -11 c-14 -26 -14 -69 -1 -77 12 -8 13 -25 2 -25 -11 0 -32 45 -32 68 0
20 29 66 37 59 2 -3 0 -14 -6 -25z m97 -43 c-3 -20 0 -33 9 -36 22 -9 14 -22
-12 -19 -26 3 -47 16 -26 16 9 0 12 11 9 35 -3 25 0 35 10 35 10 0 13 -9 10
-31z m98 -19 l1 -45 -4 43 c-5 47 -23 53 -33 11 -5 -21 -7 -22 -13 -6 -12 33
-8 43 21 42 25 0 27 -3 28 -45z m-38 -45 c-3 -3 -9 2 -12 12 -6 14 -5 15 5 6
7 -7 10 -15 7 -18z m490 -147 c12 2 22 -2 22 -7 0 -6 -13 -11 -30 -11 l-30 0
2 58 1 57 6 -50 c5 -45 8 -50 29 -47z m-577 44 c-12 -22 3 -52 26 -52 9 0 14
-3 10 -6 -11 -11 -46 7 -52 27 -4 11 -1 26 5 34 17 20 23 19 11 -3z m111 6
c-7 -7 -12 -23 -12 -36 0 -13 -4 -21 -9 -17 -5 3 -9 19 -9 35 1 23 6 30 22 30
15 0 17 -3 8 -12z m72 -3 c-4 -9 0 -15 10 -15 9 0 16 7 16 16 0 8 5 12 10 9
22 -14 10 -35 -21 -35 -27 0 -30 -2 -19 -15 7 -9 19 -14 27 -11 7 3 13 1 13
-4 0 -14 -34 -12 -48 2 -13 13 -16 50 -5 61 12 12 22 7 17 -8z m13 -107 c-3
-7 -5 -2 -5 12 0 14 2 19 5 13 2 -7 2 -19 0 -25z m-541 -35 c4 -16 12 -31 18
-35 8 -6 8 -10 -1 -16 -7 -4 -15 -28 -18 -52 -12 -92 -16 -110 -23 -110 -4 0
-7 29 -7 64 0 35 3 62 7 60 13 -8 9 91 -4 104 -9 9 -8 12 5 12 10 0 19 -11 23
-27z m-561 -147 c0 -50 -3 -62 -12 -54 -16 13 -17 72 -3 99 6 10 12 19 13 19
1 0 2 -29 2 -64z m447 12 c-7 -7 -12 -8 -12 -2 0 14 12 26 19 19 2 -3 -1 -11
-7 -17z m-1078 6 c25 -10 19 -34 -9 -34 -32 0 -34 -27 -2 -33 15 -4 12 -5 -8
-4 -23 2 -31 7 -33 25 -3 23 13 52 28 52 5 0 15 -3 24 -6z m59 -21 l14 -27 16
30 c9 16 16 22 16 14 1 -25 -37 -100 -50 -100 -9 0 -9 3 0 14 9 11 8 23 -4 51
-16 41 -17 45 -10 45 2 0 11 -12 18 -27z m135 10 c13 -25 -3 -63 -27 -63 -11
0 -22 -8 -24 -17 -3 -10 -5 8 -6 40 -1 54 0 57 24 57 13 0 28 -8 33 -17z m85
7 c-17 -7 -23 -18 -24 -42 l-1 -33 -10 28 c-13 37 -6 52 28 54 27 2 27 1 7 -7z
m91 4 c26 -10 18 -32 -11 -36 -37 -4 -35 -21 3 -30 28 -6 27 -6 -6 -5 -31 2
-35 6 -38 31 -5 37 17 53 52 40z m76 -6 l-25 -10 23 -11 c33 -15 29 -47 -5
-46 -24 2 -25 2 -5 6 27 5 29 20 2 28 -35 11 -24 46 14 44 19 0 18 -1 -4 -11z
m90 1 l-24 -10 24 -12 c35 -18 32 -42 -5 -44 -20 -1 -23 0 -7 4 27 6 29 20 2
28 -35 11 -24 46 14 44 19 0 19 -1 -4 -10z m288 -40 c2 -13 11 -30 19 -36 15
-11 15 -13 0 -19 -10 -3 -17 -17 -17 -30 0 -18 -5 -24 -22 -24 -14 0 -18 3
-12 8 6 4 15 22 19 40 5 25 3 32 -9 32 -19 0 -21 17 -4 22 9 3 8 9 -5 22 -23
23 -22 27 6 17 13 -5 23 -18 25 -32z m146 7 c-3 -15 -8 -25 -11 -23 -2 3 -1
17 3 31 3 15 8 25 11 23 2 -3 1 -17 -3 -31z m-89 15 c3 -5 1 -12 -5 -16 -5 -3
-10 1 -10 9 0 18 6 21 15 7z m-180 -11 c-3 -5 -11 -10 -16 -10 -6 0 -7 5 -4
10 3 6 11 10 16 10 6 0 7 -4 4 -10z m377 -15 c3 -14 1 -25 -3 -25 -5 0 -9 11
-9 25 0 14 2 25 4 25 2 0 6 -11 8 -25z m-377 -15 c3 -5 1 -10 -4 -10 -6 0 -11
5 -11 10 0 6 2 10 4 10 3 0 8 -4 11 -10z m180 0 c3 -5 1 -10 -4 -10 -6 0 -11
5 -11 10 0 6 2 10 4 10 3 0 8 -4 11 -10z m124 -118 c-14 -6 -11 -50 4 -55 6
-2 9 -8 5 -12 -15 -16 -38 5 -38 34 0 16 -5 31 -12 33 -9 3 -8 9 2 20 14 15
16 14 31 -1 9 -9 12 -17 8 -19z m-354 5 c23 -17 12 -37 -21 -37 -13 0 -24 -4
-24 -10 0 -5 11 -10 25 -10 14 0 25 -4 25 -10 0 -14 -43 -13 -58 2 -18 18 -15
55 6 67 22 14 25 13 47 -2z m183 1 c22 -22 13 -38 -19 -38 -17 0 -28 -4 -24
-10 3 -5 17 -10 31 -10 14 0 22 -4 19 -10 -9 -14 -48 -13 -63 2 -18 18 -15 55
6 67 23 14 36 13 50 -1z m90 0 c14 -14 16 -68 3 -68 -5 0 -11 12 -13 27 -4 38
-28 42 -28 4 0 -16 -4 -33 -10 -36 -6 -4 -10 10 -10 34 0 38 3 42 41 50 3 0
10 -4 17 -11z m-221 -18 c3 -11 9 -20 13 -20 4 0 10 9 13 20 3 11 10 20 16 20
8 0 6 -12 -4 -36 -8 -20 -15 -38 -15 -40 0 -2 -4 -4 -10 -4 -8 0 -40 61 -40
76 0 14 23 0 27 -16z m-554 -30 c3 -11 1 -18 -4 -14 -5 3 -9 12 -9 20 0 20 7
17 13 -6z m27 -120 c12 -8 12 -10 1 -10 -9 0 -12 -10 -9 -35 2 -19 0 -35 -4
-35 -4 0 -9 9 -9 20 -2 28 -3 33 -11 46 -14 21 7 30 32 14z"/>
<path d="M2407 4995 c-27 -14 -54 -25 -60 -25 -7 0 -37 -24 -67 -53 -30 -28
-58 -51 -61 -50 -4 1 -13 -5 -21 -15 -11 -15 -11 -16 3 -5 9 7 18 11 20 8 3
-2 27 17 54 43 28 26 84 63 125 83 41 21 71 38 65 38 -5 0 -32 -11 -58 -24z"/>
<path d="M2250 4773 c-17 -26 -30 -54 -30 -62 0 -9 -9 -40 -20 -69 -11 -29
-20 -58 -20 -65 1 -6 12 17 26 53 30 79 50 126 69 163 22 43 7 31 -25 -20z"/>
<path d="M1986 4524 c-4 -14 -5 -28 -3 -31 3 -2 8 8 11 23 4 14 5 28 3 31 -3
2 -8 -8 -11 -23z"/>
<path d="M2860 4161 c-19 -10 -50 -37 -68 -60 -43 -53 -30 -53 16 0 25 29 37
37 43 28 4 -8 -4 -26 -22 -48 -38 -47 -27 -54 12 -8 36 43 49 46 49 14 0 -33
18 -47 61 -47 43 0 63 20 56 55 -4 24 -3 25 17 12 36 -24 32 -46 -13 -65 -49
-20 -55 -35 -8 -21 17 6 42 12 54 13 24 3 55 30 46 40 -4 3 -1 6 5 6 6 0 16
10 23 22 10 18 9 20 -6 14 -13 -4 -16 -2 -11 9 4 10 -1 15 -14 15 -11 0 -28 8
-38 18 -26 26 -155 28 -202 3z m60 -1 c0 -5 -2 -10 -4 -10 -3 0 -8 5 -11 10
-3 6 -1 10 4 10 6 0 11 -4 11 -10z m40 -60 c0 -5 -7 -10 -15 -10 -8 0 -15 5
-15 10 0 6 7 10 15 10 8 0 15 -4 15 -10z m15 -40 c-3 -5 -16 -10 -28 -10 -18
0 -19 2 -7 10 20 13 43 13 35 0z"/>
<path d="M2757 4100 c-9 -14 -17 -31 -16 -40 0 -13 1 -13 6 0 4 8 13 20 21 26
8 6 13 17 10 24 -3 10 -9 6 -21 -10z"/>
<path d="M2517 3724 c5 -14 47 -34 71 -34 9 0 28 -9 42 -20 32 -25 71 -25 118
-1 20 11 49 24 65 30 39 15 33 27 -13 23 -23 -2 -49 -13 -62 -26 -38 -38 -55
-38 -94 -4 -25 23 -50 34 -84 38 -35 4 -47 3 -43 -6z"/>
<path d="M2399 3509 c70 -45 222 -100 228 -81 3 6 9 12 14 12 6 0 7 -4 4 -10
-3 -5 3 -10 14 -10 42 0 9 27 -40 33 -27 3 -55 10 -62 14 -6 4 -16 8 -22 9 -5
1 -20 5 -32 9 -46 15 -21 25 63 25 64 0 85 3 81 13 -2 7 -21 11 -50 10 -26 -1
-47 3 -47 7 0 5 -46 8 -103 7 l-103 -2 55 -36z"/>
<path d="M2777 3544 c-3 -3 -29 -9 -58 -13 -29 -3 -54 -11 -56 -18 -3 -9 21
-11 101 -7 68 4 106 2 106 -4 0 -13 -59 -44 -70 -37 -4 3 -10 -3 -12 -13 -7
-24 27 -23 67 2 42 26 135 88 135 90 0 4 -208 4 -213 0z"/>
<path d="M2700 3434 c0 -14 3 -15 18 -3 9 7 19 15 21 16 2 2 -5 3 -17 3 -14 0
-22 -6 -22 -16z"/>
<path d="M3530 4470 c0 -5 7 -10 16 -10 8 0 12 5 9 10 -3 6 -10 10 -16 10 -5
0 -9 -4 -9 -10z"/>
<path d="M3983 4284 c-8 -21 13 -42 28 -27 13 13 5 43 -11 43 -6 0 -13 -7 -17
-16z"/>
<path d="M960 4110 c-12 -23 -6 -40 15 -40 13 0 25 21 25 46 0 21 -28 17 -40
-6z"/>
<path d="M1335 4120 c-3 -5 3 -10 15 -10 12 0 18 5 15 10 -3 6 -10 10 -15 10
-5 0 -12 -4 -15 -10z"/>
<path d="M1697 4124 c-4 -4 -7 -18 -7 -31 0 -18 5 -24 18 -21 10 2 17 12 17
27 0 24 -15 37 -28 25z"/>
<path d="M3627 4047 c-3 -8 -2 -20 3 -27 11 -18 42 -4 38 17 -4 22 -34 29 -41
10z"/>
<path d="M4090 3875 c-14 -17 -5 -48 13 -43 14 5 23 58 9 58 -5 0 -15 -7 -22
-15z"/>
<path d="M1054 3766 c-8 -22 3 -49 19 -43 6 2 12 14 12 27 0 27 -22 39 -31 16z"/>
<path d="M1425 3770 c-3 -5 1 -10 9 -10 9 0 16 5 16 10 0 6 -4 10 -9 10 -6 0
-13 -4 -16 -10z"/>
<path d="M1604 3765 c-7 -18 2 -45 15 -45 5 0 11 7 15 15 7 18 -2 45 -15 45
-5 0 -12 -7 -15 -15z"/>
<path d="M3716 3694 c-10 -26 -7 -34 14 -34 15 0 20 7 20 25 0 28 -24 34 -34
9z"/>
<path d="M3810 3700 c-12 -23 -6 -40 15 -40 16 0 26 25 19 45 -8 21 -21 19
-34 -5z"/>
<path d="M1240 3575 c0 -16 6 -25 15 -25 9 0 15 9 15 25 0 16 -6 25 -15 25 -9
0 -15 -9 -15 -25z"/>
<path d="M595 3060 c-10 -32 12 -51 31 -25 17 23 14 39 -8 43 -10 2 -19 -6
-23 -18z"/>
<path d="M1060 3070 c0 -5 5 -10 10 -10 6 0 10 5 10 10 0 6 -4 10 -10 10 -5 0
-10 -4 -10 -10z"/>
<path d="M1140 3034 c0 -9 7 -14 17 -12 25 5 28 28 4 28 -12 0 -21 -6 -21 -16z"/>
<path d="M1330 3070 c0 -5 7 -10 15 -10 8 0 15 5 15 10 0 6 -7 10 -15 10 -8 0
-15 -4 -15 -10z"/>
<path d="M4167 2716 c-3 -8 0 -22 8 -33 13 -17 14 -17 20 0 8 20 0 47 -14 47
-5 0 -11 -6 -14 -14z"/>
<path d="M680 2684 c0 -9 7 -14 17 -12 25 5 28 28 4 28 -12 0 -21 -6 -21 -16z"/>
<path d="M780 2700 c0 -25 4 -31 18 -28 11 2 17 12 17 28 0 16 -6 26 -17 28
-14 3 -18 -3 -18 -28z"/>
<path d="M874 2716 c-8 -22 3 -49 19 -43 6 2 12 14 12 27 0 27 -22 39 -31 16z"/>
<path d="M1146 2553 c-3 -4 -6 -17 -6 -30 0 -31 34 -28 38 3 3 21 -20 39 -32
27z"/>
<path d="M787 2554 c-4 -4 -7 -18 -7 -31 0 -26 27 -32 37 -7 6 17 -19 49 -30
38z"/>
<path d="M877 2554 c-4 -4 -7 -18 -7 -31 0 -26 27 -32 37 -7 6 17 -19 49 -30
38z"/>
<path d="M4540 2480 c0 -5 9 -10 20 -10 11 0 20 5 20 10 0 6 -9 10 -20 10 -11
0 -20 -4 -20 -10z"/>
<path d="M602 2356 c2 -15 8 -26 13 -26 15 0 12 43 -3 48 -10 3 -13 -4 -10
-22z"/>
<path d="M4631 2298 c-10 -26 -6 -38 14 -38 16 0 29 35 20 50 -10 17 -25 11
-34 -12z"/>
<path d="M4732 2308 c-17 -17 -15 -48 3 -48 17 0 39 36 30 50 -8 13 -18 13
-33 -2z"/>
<path d="M1506 1815 c-9 -26 -7 -32 5 -12 6 10 9 21 6 23 -2 3 -7 -2 -11 -11z"/>
<path d="M602 1848 c-7 -7 -12 -20 -12 -31 0 -30 34 -16 38 16 4 29 -6 35 -26
15z"/>
<path d="M1245 1500 c-3 -5 1 -10 9 -10 9 0 16 5 16 10 0 6 -4 10 -9 10 -6 0
-13 -4 -16 -10z"/>
<path d="M1055 1469 c-10 -15 1 -23 20 -15 9 3 13 10 10 16 -8 13 -22 13 -30
-1z"/>
<path d="M3807 1428 c-6 -18 12 -50 24 -43 15 10 11 55 -5 55 -8 0 -16 -6 -19
-12z"/>
<path d="M3902 1415 c2 -14 8 -26 13 -26 6 0 11 12 13 26 2 18 -1 25 -13 25
-12 0 -15 -7 -13 -25z"/>
<path d="M3715 1401 c-3 -5 -1 -12 5 -16 12 -7 30 2 30 16 0 12 -27 12 -35 0z"/>
<path d="M2065 800 c-3 -5 1 -10 9 -10 9 0 16 5 16 10 0 6 -4 10 -9 10 -6 0
-13 -4 -16 -10z"/>
<path d="M2244 796 c-8 -22 3 -49 19 -43 6 2 12 14 12 27 0 27 -22 39 -31 16z"/>
<path d="M2430 800 c0 -5 7 -10 15 -10 8 0 15 5 15 10 0 6 -7 10 -15 10 -8 0
-15 -4 -15 -10z"/>
<path d="M1860 5010 c0 -5 5 -10 10 -10 6 0 10 5 10 10 0 6 -4 10 -10 10 -5 0
-10 -4 -10 -10z"/>
<path d="M3090 4933 c25 -25 60 -59 78 -76 30 -27 45 -56 21 -41 -8 4 -8 0 0
-15 14 -25 23 -28 14 -3 -6 15 -3 14 17 -3 l24 -20 -24 35 c-29 44 -151 170
-164 170 -6 0 10 -21 34 -47z"/>
<path d="M1434 4782 c3 -19 15 -45 26 -59 l20 -26 0 31 c0 19 -10 41 -26 59
l-26 28 6 -33z"/>
<path d="M1601 4736 c-9 -11 -8 -17 4 -30 20 -20 47 -9 43 18 -4 25 -30 32
-47 12z"/>
<path d="M1383 4544 c-8 -22 9 -69 26 -69 21 0 35 29 27 58 -7 31 -43 37 -53
11z"/>
<path d="M3805 4470 c-3 -5 1 -10 9 -10 9 0 16 5 16 10 0 6 -4 10 -9 10 -6 0
-13 -4 -16 -10z"/>
<path d="M1173 4335 c0 -8 4 -15 9 -15 4 0 8 4 8 9 0 6 -4 12 -8 15 -5 3 -9
-1 -9 -9z"/>
<path d="M1120 4310 c0 -5 4 -10 9 -10 6 0 13 5 16 10 3 6 -1 10 -9 10 -9 0
-16 -4 -16 -10z"/>
<path d="M1237 4293 c-11 -10 -8 -41 5 -49 12 -8 38 21 38 43 0 13 -32 18 -43
6z"/>
<path d="M876 4114 c-9 -9 -15 -21 -13 -27 6 -20 26 -18 37 3 16 30 -1 47 -24
24z"/>
<path d="M4340 4104 c0 -8 5 -12 10 -9 6 4 8 11 5 16 -9 14 -15 11 -15 -7z"/>
<path d="M4360 4035 c0 -28 15 -34 24 -9 10 25 7 34 -9 34 -9 0 -15 -9 -15
-25z"/>
<path d="M4270 3859 c0 -20 4 -29 13 -27 18 7 20 45 3 51 -12 5 -16 -1 -16
-24z"/>
<path d="M4322 3873 c-7 -12 -12 -28 -12 -37 0 -8 -8 -17 -17 -19 -17 -4 -17
-5 -1 -6 21 -1 51 41 46 66 -3 16 -5 16 -16 -4z"/>
<path d="M4460 3720 c-27 -22 -32 -31 -23 -41 16 -16 77 20 81 49 5 30 -16 28
-58 -8z"/>
<path d="M4077 3683 c-6 -32 0 -44 12 -24 7 11 9 11 13 0 7 -18 15 -10 23 24
4 16 3 27 -3 27 -6 0 -13 -8 -15 -17 -4 -17 -5 -17 -6 0 -2 27 -18 20 -24 -10z"/>
<path d="M4144 3609 c-3 -6 -2 -14 4 -18 5 -3 12 -15 14 -26 4 -19 5 -19 17 3
7 13 10 30 7 38 -6 17 -32 19 -42 3z"/>
<path d="M4120 3540 c0 -5 5 -10 10 -10 6 0 10 5 10 10 0 6 -4 10 -10 10 -5 0
-10 -4 -10 -10z"/>
<path d="M3950 3461 c0 -5 7 -14 15 -21 16 -14 18 -10 9 14 -6 17 -24 22 -24
7z"/>
<path d="M4226 3392 c-3 -6 -1 -14 5 -17 15 -10 25 3 12 16 -7 7 -13 7 -17 1z"/>
<path d="M3853 3363 c-13 -5 7 -50 29 -64 10 -7 9 -9 -4 -9 -10 0 -18 -4 -18
-10 0 -12 20 -13 38 -1 17 10 15 23 -4 34 -22 12 -17 27 10 27 19 0 26 -7 31
-29 9 -40 39 -73 59 -65 22 8 20 15 -11 41 -21 17 -24 22 -11 23 31 0 66 -19
73 -39 7 -24 35 -29 35 -7 0 21 -62 66 -91 66 -14 0 -33 6 -44 13 -23 16 -74
27 -92 20z"/>
<path d="M4420 3360 c0 -5 7 -10 16 -10 8 0 12 5 9 10 -3 6 -10 10 -16 10 -5
0 -9 -4 -9 -10z"/>
<path d="M4491 3304 c15 -16 25 -21 28 -13 2 7 -4 18 -15 26 -30 22 -39 15
-13 -13z"/>
<path d="M4140 3284 c0 -9 9 -18 20 -21 11 -3 20 -14 20 -24 0 -11 5 -19 10
-19 6 0 10 -3 9 -7 -3 -22 15 -53 31 -53 10 0 20 -6 23 -14 3 -8 15 -12 30 -9
28 6 43 -22 32 -57 -7 -23 6 -26 36 -7 18 10 23 9 36 -10 20 -30 43 -29 43 1
0 29 -17 43 -32 28 -7 -7 -18 -7 -34 0 -34 16 -30 28 10 28 22 0 45 9 63 24
38 32 88 25 109 -15 8 -16 18 -29 22 -30 47 -5 60 -15 67 -49 5 -25 25 -51 70
-90 16 -14 38 -33 48 -43 10 -10 25 -16 32 -13 15 5 31 -27 26 -56 -4 -28 16
-30 23 -2 4 16 1 35 -8 49 -8 12 -18 38 -21 58 -4 20 -13 41 -21 48 -8 6 -14
21 -14 33 0 16 -2 18 -9 7 -7 -11 -10 -10 -13 5 -4 15 -7 12 -19 -15 l-15 -34
-18 28 c-10 15 -21 45 -23 66 -3 23 -12 40 -22 43 -9 3 2 3 24 1 l40 -5 -43
20 c-24 11 -55 29 -69 40 -14 11 -29 17 -34 14 -5 -3 -9 2 -9 10 0 9 -4 16 -9
16 -4 0 -6 -11 -3 -25 3 -20 0 -25 -17 -25 -29 0 -36 3 -35 17 2 14 -51 10
-70 -6 -9 -7 -19 -6 -34 4 -18 13 -22 13 -29 1 -13 -23 -38 -24 -38 -1 0 17
-7 20 -40 20 -33 0 -39 -3 -37 -17 2 -10 -2 -18 -8 -18 -5 0 -10 5 -10 11 0
15 -69 109 -81 109 -5 0 -9 -7 -9 -16z m465 -104 c3 -5 1 -10 -4 -10 -6 0 -11
5 -11 10 0 6 2 10 4 10 3 0 8 -4 11 -10z m-9 -57 c-10 -10 -35 18 -29 33 4 12
8 11 20 -6 8 -12 12 -24 9 -27z m174 -183 c0 -5 -2 -10 -4 -10 -3 0 -8 5 -11
10 -3 6 -1 10 4 10 6 0 11 -4 11 -10z"/>
<path d="M4250 3270 c0 -5 5 -10 10 -10 6 0 10 5 10 10 0 6 -4 10 -10 10 -5 0
-10 -4 -10 -10z"/>
<path d="M3698 3239 c2 -16 9 -28 16 -26 19 6 18 35 -2 46 -16 9 -18 7 -14
-20z"/>
<path d="M4090 3240 c0 -5 7 -10 16 -10 8 0 12 5 9 10 -3 6 -10 10 -16 10 -5
0 -9 -4 -9 -10z"/>
<path d="M4125 3221 c-6 -10 25 -31 44 -31 17 0 13 27 -5 34 -22 8 -32 8 -39
-3z"/>
<path d="M3746 3211 c-4 -7 -5 -15 -2 -18 9 -9 19 4 14 18 -4 11 -6 11 -12 0z"/>
<path d="M3690 3176 c0 -6 4 -17 8 -24 7 -10 12 -8 26 7 16 18 16 19 -9 23
-15 3 -25 1 -25 -6z"/>
<path d="M4242 3098 c6 -18 28 -21 28 -4 0 9 -7 16 -16 16 -9 0 -14 -5 -12
-12z"/>
<path d="M4552 3008 c3 -7 15 -15 27 -16 16 -3 22 1 19 10 -3 7 -15 15 -27 16
-16 3 -22 -1 -19 -10z"/>
<path d="M4283 2935 c-17 -19 -16 -32 1 -38 19 -7 26 1 26 30 0 26 -9 29 -27
8z"/>
<path d="M4550 2850 c0 -6 7 -10 15 -10 8 0 15 2 15 4 0 2 -7 6 -15 10 -8 3
-15 1 -15 -4z"/>
<path d="M4521 2799 c-17 -7 -21 -13 -14 -20 12 -12 53 5 53 21 0 12 -7 12
-39 -1z"/>
<path d="M4856 2779 c10 -12 17 -24 14 -28 -3 -3 10 -7 28 -9 44 -4 40 13 -8
38 -50 25 -58 25 -34 -1z"/>
<path d="M4450 2775 c0 -8 7 -15 15 -15 8 0 15 7 15 15 0 8 -7 15 -15 15 -8 0
-15 -7 -15 -15z"/>
<path d="M4705 2780 c4 -6 11 -8 16 -5 14 9 11 15 -7 15 -8 0 -12 -5 -9 -10z"/>
<path d="M4657 2745 c18 -25 33 -32 33 -17 0 10 -33 42 -44 42 -4 0 1 -11 11
-25z"/>
<path d="M4430 2743 c0 -18 41 -73 54 -73 29 0 27 21 -4 50 -31 29 -50 38 -50
23z"/>
<path d="M4620 2720 c0 -5 7 -10 15 -10 8 0 15 5 15 10 0 6 -7 10 -15 10 -8 0
-15 -4 -15 -10z"/>
<path d="M4625 2691 c-6 -11 9 -23 19 -14 9 9 7 23 -3 23 -6 0 -12 -4 -16 -9z"/>
<path d="M4900 2280 c0 -11 7 -20 15 -20 17 0 18 2 9 24 -9 23 -24 20 -24 -4z"/>
<path d="M5140 2133 c0 -12 71 -66 77 -59 9 8 -47 66 -64 66 -7 0 -13 -3 -13
-7z"/>
<path d="M4717 1753 c-16 -16 -4 -47 35 -89 65 -71 80 -18 17 60 -31 36 -40
42 -52 29z"/>
<path d="M331 1726 c-25 -30 22 -76 59 -56 24 13 25 19 4 48 -17 25 -46 29
-63 8z"/>
<path d="M4530 1679 c0 -18 2 -19 15 -9 8 7 15 16 15 21 0 5 -7 9 -15 9 -9 0
-15 -9 -15 -21z"/>
<path d="M4570 1664 c0 -3 6 -12 14 -20 8 -7 16 -19 18 -25 2 -7 10 -10 17 -8
9 3 6 12 -9 32 -20 25 -40 36 -40 21z"/>
<path d="M490 1635 c0 -8 9 -15 20 -15 11 0 20 7 20 15 0 8 -9 15 -20 15 -11
0 -20 -7 -20 -15z"/>
<path d="M4356 1504 c-8 -22 -8 -24 9 -24 8 0 21 -13 29 -29 16 -31 66 -49 66
-25 0 8 -5 14 -12 14 -9 0 -9 3 0 12 20 20 14 37 -18 53 -37 19 -66 19 -74 -1z"/>
<path d="M4479 1458 c9 -12 10 -18 2 -18 -16 0 -14 -35 4 -50 8 -6 19 -9 25
-5 6 4 18 1 27 -7 29 -24 -12 44 -43 72 -16 14 -22 17 -15 8z"/>
<path d="M4208 1443 c-22 -6 -23 -19 -3 -27 8 -3 15 -12 15 -21 0 -9 -7 -18
-15 -21 -24 -10 -18 -33 17 -65 51 -46 98 -35 98 23 0 21 -6 31 -25 38 -19 7
-25 17 -25 39 0 17 -6 31 -16 35 -17 6 -19 6 -46 -1z"/>
<path d="M4280 1413 c0 -12 7 -23 15 -27 13 -5 14 -2 4 17 -17 32 -19 33 -19
10z"/>
<path d="M4185 1390 c4 -6 11 -8 16 -5 14 9 11 15 -7 15 -8 0 -12 -5 -9 -10z"/>
<path d="M4959 1290 c-5 -34 -3 -45 7 -45 7 0 20 -9 30 -20 11 -12 15 -15 10
-8 -5 8 -4 13 2 13 5 0 15 13 20 29 8 24 7 31 -5 35 -24 9 -63 7 -64 -4z m46
-16 c12 -5 14 -9 4 -14 -15 -10 -41 -1 -33 11 6 11 8 11 29 3z"/>
<path d="M5062 1238 c3 -41 5 -43 37 -46 20 -2 31 0 27 6 -3 6 0 12 6 14 15 5
-43 68 -62 68 -7 0 -10 -16 -8 -42z m26 -13 c-3 -3 -9 2 -12 12 -6 14 -5 15 5
6 7 -7 10 -15 7 -18z"/>
<path d="M3810 1230 c0 -11 7 -20 15 -20 17 0 18 2 9 24 -9 23 -24 20 -24 -4z"/>
<path d="M4090 1220 c0 -5 5 -10 11 -10 5 0 7 5 4 10 -3 6 -8 10 -11 10 -2 0
-4 -4 -4 -10z"/>
<path d="M5140 1190 c0 -5 5 -10 10 -10 6 0 10 5 10 10 0 6 -4 10 -10 10 -5 0
-10 -4 -10 -10z"/>
<path d="M5165 1160 c-3 -6 1 -7 9 -4 18 7 21 14 7 14 -6 0 -13 -4 -16 -10z"/>
<path d="M5185 1129 c-4 -6 -5 -12 -2 -15 2 -3 7 2 10 11 7 17 1 20 -8 4z"/>
<path d="M1510 1080 c0 -5 5 -10 11 -10 5 0 7 5 4 10 -3 6 -8 10 -11 10 -2 0
-4 -4 -4 -10z"/>
<path d="M1881 1066 c-12 -14 -5 -26 16 -26 15 0 18 26 4 34 -5 3 -14 0 -20
-8z"/>
<path d="M867 774 c-9 -10 2 -24 19 -24 8 0 14 7 14 15 0 15 -21 21 -33 9z"/>
<path d="M3725 350 c3 -5 8 -10 11 -10 2 0 4 5 4 10 0 6 -5 10 -11 10 -5 0 -7
-4 -4 -10z"/>
<path d="M2625 30 c-22 -23 -25 -30 -12 -30 9 0 23 13 32 30 9 17 14 30 12 30
-2 0 -16 -13 -32 -30z"/>
</g>
</svg>
